<?xml version="1.0" standalone="no"?>
<!DOCTYPE svg PUBLIC "-//W3C//DTD SVG 20010904//EN"
 "http://www.w3.org/TR/2001/REC-SVG-20010904/DTD/svg10.dtd">
<svg version="1.0" xmlns="http://www.w3.org/2000/svg"
 width="2000.000000pt" height="2000.000000pt" viewBox="0 0 2000.000000 2000.000000"
 preserveAspectRatio="xMidYMid meet">

<g transform="translate(0.000000,2000.000000) scale(0.100000,-0.100000)"
fill="#000000" stroke="none">
<path d="M7794 17584 c-32 -21 -160 -96 -284 -169 -316 -185 -467 -275 -940
-562 -422 -255 -450 -276 -403 -301 42 -23 388 -133 528 -168 83 -21 153 -42
157 -48 4 -6 8 -33 8 -61 0 -27 5 -67 11 -89 6 -21 16 -128 23 -237 14 -222
13 -222 96 -264 100 -51 470 -151 650 -175 358 -50 846 43 1269 241 57 27 105
48 107 47 1 -2 7 -66 13 -143 6 -77 14 -168 17 -201 6 -56 5 -63 -15 -73 -11
-7 -31 -31 -43 -54 -20 -37 -23 -57 -23 -162 0 -148 14 -198 53 -193 21 2 26
8 24 23 -2 11 -8 54 -14 95 -7 47 -8 97 -2 135 8 59 8 58 15 -60 8 -137 25
-198 57 -203 31 -5 36 17 17 81 -10 36 -15 83 -13 134 l3 78 36 -110 c20 -60
41 -126 46 -145 7 -28 14 -35 33 -35 18 0 26 6 28 22 2 14 8 20 18 16 31 -12
47 18 41 77 -14 133 -79 266 -146 301 -19 10 -38 24 -42 31 -4 7 -15 105 -25
217 -15 176 -15 206 -3 213 8 5 60 36 117 69 89 53 102 64 102 87 0 97 -51
436 -84 559 l-14 51 32 13 c17 7 131 61 253 120 220 107 303 163 303 202 0 18
-70 53 -297 148 -299 125 -642 242 -1218 414 -154 46 -300 91 -324 99 -67 24
-101 20 -167 -20z m451 -138 c542 -167 1012 -328 1275 -436 69 -29 140 -56
158 -60 19 -5 36 -10 39 -13 11 -11 -319 -176 -635 -318 -148 -66 -154 -68
-185 -54 -18 8 -131 53 -252 101 -121 48 -291 121 -378 162 -134 64 -158 79
-163 101 -14 63 -28 93 -55 120 -88 88 -215 50 -227 -67 -5 -56 10 -92 38 -92
26 0 34 17 31 66 -3 71 50 98 104 52 19 -17 29 -40 38 -85 l11 -62 131 -65
c162 -79 230 -109 472 -206 l192 -77 -297 -128 c-163 -70 -325 -142 -359 -160
-95 -52 -142 -65 -194 -55 -24 5 -177 34 -339 65 -377 71 -696 141 -737 161
-17 9 -36 14 -41 10 -11 -7 -330 83 -501 142 l-115 38 245 149 c364 221 812
489 1004 600 94 54 197 116 229 138 92 62 140 87 156 82 8 -2 168 -51 355
-109z m915 -894 c0 -15 -2 -15 -10 -2 -13 20 -13 33 0 25 6 -3 10 -14 10 -23z
m64 -559 c-31 -22 -35 -14 -12 22 21 31 23 32 26 13 2 -13 -4 -27 -14 -35z
m-709 -324 c-33 -10 -73 -21 -90 -24 l-30 -6 25 20 c24 19 58 27 125 28 21 1
13 -4 -30 -18z m694 -456 c11 -28 22 -75 25 -105 3 -29 3 -44 0 -33 -4 11 -24
70 -45 130 -30 84 -34 104 -19 85 11 -14 29 -48 39 -77z"/>
<path d="M10551 17198 c-23 -61 -112 -431 -107 -444 9 -23 39 -12 54 19 21 43
114 418 108 433 -9 22 -46 17 -55 -8z"/>
<path d="M10445 17200 c-3 -5 -13 -33 -21 -61 -14 -46 -14 -53 0 -67 21 -22
40 -3 60 59 13 39 14 54 5 65 -13 16 -35 18 -44 4z"/>
<path d="M10806 17141 c-3 -4 -53 -219 -110 -477 -58 -258 -121 -538 -141
-622 -19 -85 -56 -247 -81 -360 -25 -114 -117 -528 -205 -920 -88 -393 -159
-725 -157 -740 3 -22 11 -28 73 -45 39 -10 71 -20 73 -22 2 -1 -34 -161 -78
-355 -45 -193 -79 -358 -76 -366 12 -31 42 -10 148 101 61 63 113 115 117 115
3 0 28 -66 55 -146 46 -140 49 -145 74 -142 19 2 28 11 34 33 16 55 95 408
118 528 14 70 28 117 35 117 6 0 149 -36 318 -80 642 -169 1347 -319 1347
-287 0 3 54 212 121 464 177 673 338 1314 424 1688 83 361 185 858 185 904 0
34 -2 35 -260 119 -328 107 -594 177 -1260 332 -261 61 -528 124 -592 140
-123 32 -153 35 -162 21z m90 -67 c21 -9 66 -22 99 -29 34 -7 59 -17 58 -24
-2 -6 -32 -143 -68 -303 -36 -161 -64 -302 -63 -313 3 -23 45 -34 53 -13 10
26 135 592 135 610 0 14 5 18 18 14 9 -3 55 -14 102 -25 392 -91 1237 -305
1248 -316 4 -3 -84 -370 -248 -1035 -162 -658 -376 -1537 -450 -1852 -18 -76
-37 -138 -42 -138 -16 0 -564 135 -833 205 -137 36 -306 80 -373 97 -122 31
-124 31 -118 57 3 14 35 150 71 301 60 251 234 1024 250 1112 6 30 3 38 -12
46 -11 6 -24 7 -31 3 -7 -4 -39 -128 -71 -277 -113 -513 -265 -1166 -276
-1184 -3 -4 -43 2 -90 13 -78 19 -86 23 -80 42 3 11 68 299 144 640 77 341
181 802 231 1025 136 602 247 1099 278 1238 14 67 27 122 28 122 1 0 19 -7 40
-16z m1947 -500 c84 -26 157 -53 163 -61 28 -34 -219 -1110 -515 -2243 -198
-760 -182 -707 -216 -720 -30 -11 -335 47 -330 64 2 6 13 49 24 96 59 249 189
785 241 1000 33 134 89 363 125 510 35 146 91 373 124 505 32 132 93 382 135
555 83 340 82 340 91 340 4 0 75 -21 158 -46z"/>
<path d="M15005 16804 c-32 -32 -19 -42 105 -79 52 -16 122 -39 155 -52 55
-22 61 -22 72 -7 28 39 13 46 -289 144 -21 7 -32 5 -43 -6z"/>
<path d="M14714 16626 c-11 -29 12 -40 93 -44 239 -11 448 -75 605 -184 59
-42 88 -44 88 -9 0 25 -70 76 -175 128 -152 76 -295 112 -482 120 -110 5 -123
4 -129 -11z"/>
<path d="M14549 16367 c-8 -8 -28 -60 -43 -116 -34 -122 -34 -122 74 -140 91
-14 285 -78 371 -122 97 -49 177 -106 252 -180 221 -220 162 -505 -126 -607
-62 -22 -88 -25 -192 -25 -140 0 -212 14 -407 80 -75 25 -143 43 -151 40 -8
-3 -20 -37 -30 -84 -90 -434 -197 -971 -197 -989 0 -20 12 -27 97 -54 53 -17
106 -30 117 -28 17 3 25 20 48 108 16 58 51 184 78 280 27 96 59 217 70 268
12 50 22 92 23 92 12 0 178 -32 228 -44 245 -58 495 -29 657 76 232 151 351
491 276 789 -81 326 -403 572 -839 643 -148 24 -290 30 -306 13z m1095 -971
c-18 -86 -60 -186 -108 -259 -43 -64 -142 -160 -189 -182 -32 -15 -32 -15 -7
2 59 42 149 137 183 195 20 34 51 105 68 158 58 174 78 207 53 86z m-1354
-1176 c0 -5 -5 -10 -11 -10 -5 0 -7 5 -4 10 3 6 8 10 11 10 2 0 4 -4 4 -10z"/>
<path d="M3390 16336 c-181 -40 -344 -128 -452 -244 -51 -54 -57 -72 -33 -92
12 -10 29 1 101 69 105 99 233 167 383 203 53 12 99 27 103 32 10 15 -10 46
-30 45 -9 -1 -42 -7 -72 -13z"/>
<path d="M3905 16299 c-430 -46 -809 -253 -987 -539 -56 -91 -66 -121 -42
-140 20 -17 29 -7 84 91 45 81 180 223 272 286 204 141 452 224 738 248 82 7
101 16 84 43 -13 20 -43 23 -149 11z"/>
<path d="M4066 16099 c-247 -26 -501 -116 -701 -247 -226 -150 -434 -458 -510
-756 -65 -257 -61 -548 10 -774 107 -338 348 -628 652 -785 465 -240 1032
-182 1474 150 57 43 78 53 109 53 56 0 210 -82 353 -188 196 -144 207 -151
222 -145 8 3 15 15 15 27 0 11 -63 176 -140 365 -77 190 -140 352 -140 360 0
9 9 30 21 46 58 86 113 228 146 377 24 113 24 359 -1 478 -28 132 -81 283
-138 391 -238 456 -777 711 -1372 648z m414 -64 c117 -23 216 -57 345 -119
381 -184 630 -521 691 -936 38 -264 -15 -546 -138 -729 -22 -33 -40 -71 -40
-83 0 -18 145 -387 237 -601 18 -44 25 -47 -95 33 -118 79 -268 166 -347 202
-65 29 -67 29 -89 11 -181 -145 -352 -246 -506 -297 -256 -86 -535 -97 -767
-30 -389 113 -746 492 -876 929 -24 80 -27 108 -28 250 -2 184 18 307 77 483
71 210 172 379 311 517 204 205 498 344 810 384 100 13 316 5 415 -14z"/>
<path d="M4806 14946 c-56 -21 -87 -47 -113 -92 -86 -151 31 -354 203 -354 46
0 122 27 163 59 19 14 45 48 57 76 55 116 7 241 -113 296 -57 26 -148 33 -197
15z m167 -70 c103 -43 128 -177 48 -257 -86 -86 -217 -65 -272 44 -26 51 -23
135 7 168 51 58 143 77 217 45z"/>
<path d="M4105 14887 c-107 -42 -156 -150 -121 -268 42 -145 192 -210 332
-145 234 109 140 429 -125 425 -31 0 -69 -6 -86 -12z m185 -70 c50 -26 90 -90
90 -141 0 -47 -40 -118 -79 -140 -50 -29 -139 -27 -186 5 -44 30 -75 91 -75
148 0 119 136 188 250 128z"/>
<path d="M3415 14835 c-86 -30 -143 -129 -132 -227 15 -123 116 -218 233 -218
58 0 139 37 182 84 86 93 82 210 -8 298 -74 71 -181 96 -275 63z m205 -83 c14
-10 36 -39 49 -65 46 -92 1 -191 -99 -221 -72 -22 -129 -5 -184 53 -56 59 -44
193 20 236 56 36 160 35 214 -3z"/>
<path d="M6604 16096 c-6 -17 18 -176 39 -260 15 -58 39 -79 62 -55 12 12 13
21 4 47 -6 17 -21 87 -33 154 -20 110 -25 123 -44 126 -13 2 -25 -3 -28 -12z"/>
<path d="M6525 15850 c-11 -17 -7 -117 5 -140 12 -22 48 -27 55 -7 3 6 -1 43
-8 82 -9 50 -17 71 -29 73 -9 2 -19 -2 -23 -8z"/>
<path d="M7520 14345 c-224 -51 -398 -145 -562 -303 -295 -284 -410 -698 -307
-1106 28 -115 124 -304 202 -401 203 -252 478 -419 769 -465 122 -20 322 -8
433 25 317 94 621 378 751 701 97 239 110 507 37 739 -32 102 -96 229 -164
325 -164 232 -454 416 -759 480 -89 19 -324 22 -400 5z m296 -55 c68 -9 193
-35 200 -43 6 -5 -37 -205 -70 -329 -19 -73 -67 -230 -106 -348 -82 -245 -94
-320 -65 -396 35 -91 117 -107 291 -54 215 65 368 60 564 -20 30 -12 85 -25
121 -29 l66 -6 -24 -95 c-27 -108 -91 -249 -160 -353 -57 -86 -224 -262 -299
-313 -51 -35 -54 -36 -71 -19 -50 50 -129 56 -317 24 -157 -27 -211 -19 -281
43 -59 52 -83 100 -135 272 -77 257 -113 302 -282 354 -139 43 -176 79 -165
161 2 21 27 89 55 152 60 138 67 170 47 235 -33 113 -109 141 -313 113 -119
-16 -118 -17 -71 75 203 403 599 628 1015 576z m380 -110 c375 -179 610 -523
631 -922 l6 -117 -29 -7 c-32 -8 -89 6 -227 56 -130 47 -251 51 -415 16 -179
-38 -273 -34 -309 13 -33 42 -1 218 87 485 79 242 115 366 130 453 15 82 5 80
126 23z m-1114 -621 c30 -30 31 -32 25 -104 -4 -50 -20 -118 -51 -209 -80
-235 -65 -266 161 -340 45 -15 97 -37 115 -49 43 -29 86 -110 144 -272 57
-159 93 -230 146 -283 81 -82 161 -98 329 -66 103 20 227 23 254 7 18 -11 14
-14 -45 -42 -123 -58 -208 -74 -375 -74 -129 0 -163 4 -248 26 -317 84 -622
330 -757 611 -69 144 -92 240 -97 412 -5 148 3 223 37 345 l10 36 122 15 c189
23 195 23 230 -13z"/>
<path d="M14044 14041 c-78 -48 -109 -162 -62 -230 37 -55 71 -74 136 -79 92
-7 150 34 173 119 16 59 7 90 -39 141 -61 68 -145 88 -208 49z"/>
<path d="M13697 13893 c-43 -42 92 -283 158 -283 42 0 39 30 -8 79 -56 59 -72
86 -92 155 -12 41 -21 56 -34 56 -10 0 -21 -3 -24 -7z"/>
<path d="M16460 13207 c-3 -3 -48 -7 -100 -10 -52 -3 -229 -15 -393 -27 l-297
-22 -1358 -433 c-746 -238 -1464 -470 -1594 -515 -214 -74 -238 -85 -238 -105
0 -18 -13 -27 -69 -49 -128 -50 -191 -133 -177 -230 8 -50 37 -99 77 -129 46
-34 159 -34 270 -1 11 3 19 -3 23 -20 3 -13 12 -26 20 -29 8 -3 124 30 258 75
134 44 297 98 363 120 66 22 307 103 535 179 491 166 1134 365 1819 565 l255
74 358 257 c293 209 358 261 356 277 -3 18 -11 21 -53 24 -28 2 -53 1 -55 -1z
m-310 -102 c0 -9 11 -41 23 -73 l24 -58 -136 -97 -135 -97 -13 43 c-7 23 -27
57 -46 75 -31 30 -34 37 -29 81 3 33 -1 58 -13 80 -9 18 -15 34 -13 36 3 3
228 21 301 23 27 2 37 -2 37 -13z m-390 -45 c11 -11 20 -31 20 -45 0 -25 -25
-95 -33 -95 -2 0 -90 -31 -195 -69 -252 -92 -504 -172 -1112 -352 -672 -199
-1063 -326 -1317 -427 l-52 -21 -30 91 c-17 50 -30 93 -28 94 1 1 596 191
1322 423 850 270 1335 420 1363 421 29 0 48 -6 62 -20z m69 -216 c26 -33 27
-68 1 -109 -18 -28 -32 -36 -117 -60 -500 -141 -1501 -454 -2132 -666 -229
-77 -422 -141 -430 -142 -13 -2 -49 78 -50 114 -2 31 526 212 1174 404 775
229 1196 363 1425 454 93 37 104 37 129 5z m-3309 -906 c12 -40 29 -97 38
-126 19 -63 18 -65 -73 -82 -118 -22 -185 18 -185 111 0 42 5 55 33 84 26 29
129 84 159 85 4 0 17 -33 28 -72z"/>
<path d="M6394 12886 c-15 -40 66 -234 152 -363 56 -84 157 -194 227 -247 30
-23 40 -26 52 -16 8 7 15 18 15 24 0 7 -36 44 -79 84 -135 122 -232 272 -290
445 -22 66 -32 83 -49 85 -13 2 -25 -3 -28 -12z"/>
<path d="M13705 12813 c-11 -3 -263 -85 -560 -184 -297 -98 -551 -182 -565
-187 -32 -10 -36 -56 -5 -59 11 -2 283 85 605 191 549 183 585 196 585 218 0
24 -20 31 -60 21z"/>
<path d="M12765 12710 c-132 -61 -171 -83 -173 -99 -2 -12 3 -24 12 -27 17 -7
359 140 376 161 15 19 1 45 -24 44 -11 0 -97 -36 -191 -79z"/>
<path d="M6387 12393 c-18 -17 -2 -44 49 -82 62 -46 89 -50 89 -11 0 18 -14
34 -54 62 -54 38 -71 44 -84 31z"/>
<path d="M4698 12231 c-139 -55 -306 -254 -395 -474 -19 -46 -34 -69 -48 -72
-11 -3 -157 -25 -325 -51 -657 -99 -957 -178 -1183 -312 -153 -91 -251 -192
-317 -327 -49 -98 -69 -174 -77 -285 -20 -298 160 -562 428 -625 103 -24 153
-20 191 14 27 24 33 36 33 70 0 62 -35 92 -120 102 -214 26 -349 201 -332 429
20 254 195 436 537 555 162 56 360 101 660 150 151 25 311 51 355 59 44 8 81
13 81 12 1 0 -31 -100 -71 -221 -40 -121 -121 -375 -180 -565 -122 -395 -266
-831 -320 -970 -33 -85 -170 -374 -193 -409 -8 -10 -22 -3 -68 35 -129 104
-302 199 -424 230 -184 48 -378 -1 -501 -126 -134 -138 -185 -368 -119 -542
71 -190 320 -299 580 -254 185 32 343 118 485 262 l81 82 79 -76 c44 -42 204
-198 355 -347 283 -279 437 -417 578 -518 245 -176 433 -253 642 -264 171 -9
359 33 488 109 77 45 193 161 226 225 32 63 33 101 5 137 -52 66 -123 54 -170
-29 -59 -105 -164 -179 -302 -215 -303 -77 -558 11 -927 321 -97 81 -847 806
-858 829 -1 4 24 52 56 108 138 239 289 654 556 1532 74 243 137 432 198 597
l42 112 106 34 c194 63 389 173 474 267 55 61 76 113 76 190 0 107 -58 189
-161 225 -57 21 -163 18 -221 -4z m168 -207 c16 -63 -60 -142 -201 -209 -49
-24 -103 -46 -119 -49 l-28 -7 32 58 c71 126 162 225 224 241 42 12 85 -4 92
-34z m-1944 -2655 c35 -11 95 -39 133 -61 73 -43 245 -166 245 -175 0 -15 -89
-108 -143 -149 -259 -196 -597 -189 -666 15 -25 77 -7 193 44 270 79 118 222
156 387 100z"/>
<path d="M6158 10855 c-19 -11 -34 -35 -53 -87 -15 -40 -35 -90 -44 -112 l-16
-39 -40 54 c-137 183 -393 230 -614 114 -329 -174 -657 -760 -761 -1360 -27
-151 -29 -352 -5 -440 37 -138 107 -237 202 -285 64 -33 203 -40 290 -15 121
34 285 160 395 302 l43 56 8 -62 c17 -142 80 -237 188 -285 57 -26 69 -28 163
-24 113 4 175 26 267 94 l49 36 0 -42 c0 -58 33 -90 93 -90 33 0 50 6 68 24
17 17 74 164 193 502 93 264 193 535 223 604 165 382 412 728 583 819 137 73
283 41 340 -74 21 -43 24 -62 23 -140 -3 -155 -35 -276 -174 -649 -150 -401
-185 -550 -177 -734 8 -156 60 -257 166 -319 41 -24 60 -28 147 -31 119 -5
193 16 285 78 73 50 182 167 251 269 l54 81 12 -87 c22 -149 84 -253 185 -308
47 -26 65 -30 159 -33 92 -4 114 -1 175 20 72 25 167 84 237 147 30 26 39 30
33 16 -10 -28 -102 -294 -113 -330 -11 -35 -26 -40 -298 -90 -208 -39 -325
-70 -443 -116 -271 -107 -412 -281 -412 -509 0 -123 39 -228 117 -311 86 -92
181 -129 329 -129 64 0 112 6 157 20 139 43 305 187 425 369 86 131 201 371
265 552 3 10 48 31 114 53 120 42 302 130 409 198 153 99 325 256 442 404 l56
72 18 -71 c10 -38 29 -89 42 -112 34 -57 107 -122 174 -153 53 -25 67 -27 192
-27 104 0 148 4 190 18 95 32 190 95 287 192 l93 92 10 -41 c18 -70 63 -157
99 -188 19 -17 57 -41 85 -54 69 -32 204 -34 294 -3 113 38 238 147 352 307
51 72 60 80 64 60 22 -105 32 -140 52 -184 33 -70 91 -134 155 -169 51 -29 60
-30 174 -30 115 0 123 1 190 33 120 57 247 167 352 305 l22 28 6 -48 c17 -120
42 -178 107 -240 65 -63 116 -83 221 -83 153 0 263 52 397 189 41 42 97 109
124 149 27 40 53 72 58 72 4 0 8 -15 8 -32 0 -48 27 -153 50 -199 31 -59 87
-117 144 -147 47 -25 60 -27 176 -27 123 0 126 1 200 36 41 20 109 63 151 97
l77 60 -50 -141 c-28 -78 -56 -163 -64 -188 l-14 -46 -97 -21 c-54 -12 -138
-28 -188 -37 -483 -85 -740 -223 -827 -445 -30 -78 -36 -230 -13 -317 33 -121
120 -221 242 -275 37 -17 73 -23 163 -26 132 -5 198 12 305 76 84 51 220 190
294 302 77 117 185 332 237 472 l38 105 101 33 c133 45 368 165 480 245 164
117 347 303 459 468 41 60 56 70 56 37 0 -32 41 -131 77 -189 74 -115 201
-204 339 -237 98 -23 330 -15 432 15 307 89 569 354 795 805 73 144 81 188 42
234 -21 26 -34 32 -65 32 -22 0 -47 -8 -63 -20 -14 -11 -57 -86 -100 -172
-220 -449 -455 -668 -760 -708 -185 -25 -357 31 -437 142 -86 118 -99 276 -45
516 l16 67 107 29 c457 122 846 350 1000 587 166 256 100 541 -143 615 -283
87 -576 -76 -837 -465 -112 -168 -238 -438 -293 -626 -23 -79 -100 -243 -182
-384 -182 -313 -432 -565 -688 -694 -82 -41 -197 -89 -202 -84 -4 4 188 561
340 987 89 248 285 774 406 1085 38 97 40 137 7 170 -43 43 -106 45 -144 5
-10 -11 -33 -59 -51 -108 -19 -48 -37 -91 -41 -95 -4 -5 -17 7 -29 26 -33 54
-127 136 -184 162 -406 179 -832 -201 -1102 -984 -49 -143 -130 -326 -212
-481 -168 -316 -325 -471 -479 -474 -60 0 -99 21 -124 70 -20 40 -19 190 3
284 45 192 186 608 397 1170 140 373 142 378 129 417 -13 42 -44 63 -90 63
-57 0 -82 -28 -125 -140 -21 -56 -41 -103 -45 -106 -5 -3 -15 8 -23 23 -8 15
-34 48 -58 72 -123 124 -322 163 -498 99 -208 -76 -419 -308 -589 -646 -62
-125 -99 -214 -161 -397 -103 -301 -295 -652 -436 -793 -135 -135 -297 -157
-354 -46 -11 20 -15 57 -14 124 2 166 85 442 365 1208 93 254 169 476 169 493
0 41 -15 66 -52 85 -38 20 -87 12 -115 -19 -11 -12 -78 -179 -148 -372 -241
-662 -334 -893 -449 -1123 -160 -317 -326 -464 -526 -465 -64 -1 -83 4 -125
26 -83 46 -125 133 -125 262 0 125 34 229 330 1015 133 352 213 578 213 599
-2 69 -87 111 -148 73 -28 -17 -47 -63 -199 -458 -93 -241 -193 -506 -223
-589 -87 -238 -213 -477 -351 -665 -77 -104 -240 -270 -342 -347 -75 -57 -322
-190 -387 -208 -21 -6 -16 14 66 252 214 621 504 1417 651 1783 23 58 43 122
43 142 2 49 -34 87 -89 95 -58 7 -86 -20 -124 -120 -51 -130 -45 -126 -94 -60
-67 91 -144 141 -258 168 -186 44 -352 -13 -525 -178 -196 -187 -352 -455
-477 -817 -26 -74 -84 -211 -130 -305 -235 -485 -389 -666 -567 -669 -103 -1
-140 48 -140 188 0 143 33 267 181 677 141 390 174 532 168 723 -3 94 -9 134
-27 177 -48 123 -154 199 -310 221 -157 22 -284 -19 -432 -138 l-79 -64 16 38
c24 57 21 99 -12 133 -22 23 -36 29 -68 29 -63 -1 -81 -22 -127 -150 -22 -63
-108 -304 -190 -535 -82 -231 -156 -433 -163 -450 -8 -16 -37 -82 -66 -145
-210 -470 -406 -703 -592 -703 -109 0 -145 57 -135 221 8 147 61 329 237 822
84 235 281 770 300 818 39 94 -52 176 -142 127z m-396 -242 c73 -41 124 -118
144 -216 l15 -73 -89 -234 c-279 -735 -473 -1066 -695 -1183 -67 -36 -145 -51
-195 -37 -194 52 -180 496 32 1023 234 583 537 860 788 720z m3649 22 c102
-35 171 -134 190 -272 l11 -78 -85 -215 c-171 -436 -291 -691 -412 -875 -71
-108 -210 -250 -282 -288 -98 -52 -214 -56 -267 -9 -50 46 -67 145 -55 327 17
267 116 601 268 903 196 390 428 576 632 507z m3750 0 c55 -19 112 -65 144
-115 28 -44 55 -131 55 -176 0 -72 -226 -637 -367 -919 -179 -357 -373 -554
-551 -558 -75 -2 -119 23 -149 83 -87 174 -35 550 132 962 217 531 496 805
736 723z m1885 -13 c51 -26 110 -91 136 -150 13 -28 22 -76 25 -126 l5 -81
-111 -276 c-218 -545 -356 -803 -521 -970 -87 -88 -141 -122 -229 -144 -106
-28 -189 6 -221 90 -18 49 -23 182 -11 300 45 424 262 954 496 1212 138 153
305 209 431 145z m1925 17 c21 -7 51 -25 66 -41 26 -27 28 -36 28 -106 0 -69
-4 -84 -35 -142 -69 -129 -222 -250 -451 -359 -127 -60 -403 -165 -420 -159
-14 5 160 348 230 455 74 111 192 238 268 289 99 66 222 90 314 63z m-8071
-2376 c0 -16 -72 -200 -104 -267 -141 -293 -347 -454 -547 -429 -211 27 -281
290 -120 451 92 92 223 142 541 207 233 48 230 48 230 38z m5610 2 c0 -12 -91
-238 -115 -286 -72 -142 -161 -257 -253 -326 -80 -60 -150 -85 -243 -85 -66 0
-84 4 -129 28 -150 82 -166 287 -33 422 93 94 225 144 563 212 197 40 210 43
210 35z"/>
<path d="M11833 7983 c-22 -8 -14 -51 13 -72 43 -34 72 -23 60 22 -6 25 -54
57 -73 50z"/>
<path d="M11610 7915 c-7 -9 -11 -17 -9 -20 285 -295 319 -323 327 -269 2 14
-36 60 -136 162 -76 78 -146 142 -154 142 -9 0 -21 -7 -28 -15z"/>
<path d="M3876 7854 c-3 -9 -6 -18 -6 -20 0 -2 26 -21 58 -41 31 -20 84 -63
118 -95 63 -60 94 -68 94 -25 0 43 -189 197 -241 197 -9 0 -20 -7 -23 -16z"/>
<path d="M11225 7817 c-141 -73 -291 -242 -375 -419 -17 -35 -30 -71 -30 -80
0 -47 608 -513 1701 -1304 26 -19 53 -34 60 -34 8 0 84 31 169 68 102 45 156
74 158 85 2 11 -158 190 -450 505 -249 269 -529 571 -623 672 -93 102 -210
228 -260 280 -49 53 -127 135 -172 183 -45 48 -86 87 -90 87 -4 0 -44 -20 -88
-43z m844 -851 c413 -446 748 -813 744 -817 -5 -4 -57 -29 -118 -55 -94 -40
-112 -45 -130 -34 -40 25 -754 547 -965 705 -118 89 -312 238 -430 331 -118
93 -231 180 -250 193 -19 14 -37 26 -39 27 -6 5 80 157 124 219 85 119 275
278 301 252 7 -7 350 -376 763 -821z"/>
<path d="M15636 7838 c-3 -13 -42 -255 -87 -538 -88 -559 -85 -550 -149 -550
-93 0 -479 -177 -621 -284 -277 -209 -478 -528 -546 -864 -26 -127 -23 -366 5
-489 100 -438 420 -760 867 -873 161 -41 292 -54 485 -47 306 11 574 79 855
216 464 228 770 588 840 990 61 347 -71 746 -327 986 -150 141 -314 232 -568
315 -96 32 -163 60 -176 73 -11 12 -74 135 -139 272 -116 244 -352 735 -378
785 -17 34 -55 39 -61 8z m167 -373 c63 -132 152 -316 197 -410 45 -93 95
-204 112 -245 16 -41 39 -85 50 -97 22 -24 92 -49 224 -82 158 -40 361 -144
492 -252 234 -193 376 -563 342 -894 -45 -445 -324 -802 -805 -1031 -281 -133
-554 -195 -865 -195 -290 0 -495 47 -715 165 -398 211 -600 609 -545 1076 33
293 143 548 316 739 161 178 454 345 779 446 66 20 124 40 128 44 8 8 29 126
107 621 50 319 59 365 65 358 2 -2 55 -111 118 -243z"/>
<path d="M16433 5820 c-124 -26 -191 -115 -181 -243 12 -142 112 -237 250
-237 198 0 324 213 219 369 -57 86 -179 133 -288 111z m143 -71 c45 -14 101
-76 115 -130 37 -139 -128 -263 -266 -200 -135 61 -154 254 -32 318 60 31 109
34 183 12z"/>
<path d="M15689 5719 c-60 -9 -99 -30 -137 -73 -100 -114 -49 -318 95 -386 40
-19 60 -22 119 -18 155 10 258 125 241 269 -17 143 -156 234 -318 208z m144
-73 c44 -18 94 -77 108 -128 29 -109 -63 -211 -191 -212 -68 -1 -113 23 -155
83 -26 37 -30 52 -30 106 0 76 20 109 85 143 51 26 133 30 183 8z"/>
<path d="M14874 5601 c-144 -65 -167 -269 -44 -392 56 -56 107 -73 195 -66 75
6 132 34 179 89 110 128 53 320 -113 376 -53 19 -169 15 -217 -7z m238 -70
c101 -70 115 -200 27 -274 -96 -83 -228 -69 -294 31 -59 90 -34 204 55 250 61
31 160 28 212 -7z"/>
<path d="M3133 7775 c-415 -75 -684 -406 -684 -840 1 -336 194 -621 528 -777
234 -110 503 -121 726 -31 259 105 471 375 522 668 19 111 19 180 0 291 -30
170 -119 329 -258 461 -179 168 -387 245 -660 242 -56 0 -134 -7 -174 -14z
m334 -55 c330 -45 594 -271 674 -579 24 -90 29 -273 10 -366 -64 -318 -235
-517 -521 -607 -67 -20 -93 -23 -245 -22 -154 1 -178 3 -260 27 -254 76 -425
206 -525 399 -61 116 -82 209 -83 358 0 159 24 265 95 410 82 169 206 277 390
341 135 46 303 60 465 39z"/>
<path d="M3104 7418 c-34 -16 -55 -64 -66 -156 -11 -91 -4 -147 25 -186 19
-26 73 -23 103 5 52 49 74 212 38 284 -22 45 -66 68 -100 53z"/>
<path d="M3611 7262 c-62 -62 -99 -264 -57 -311 61 -68 156 23 186 177 23 122
-58 206 -129 134z"/>
<path d="M2772 6911 c-20 -12 -27 -120 -13 -193 40 -204 207 -367 432 -422 83
-20 224 -21 303 0 139 36 258 128 314 244 36 73 58 150 50 171 -4 10 -156 41
-529 108 -288 52 -528 95 -534 97 -5 2 -16 0 -23 -5z"/>
<path d="M17017 6983 c-21 -21 -3 -51 58 -96 36 -26 88 -75 117 -107 29 -33
61 -60 71 -60 71 0 -38 142 -187 242 -44 30 -49 32 -59 21z"/>
<path d="M16544 6845 c-12 -30 4 -45 48 -45 70 0 202 -37 287 -79 178 -90 336
-259 403 -432 25 -64 37 -74 64 -55 17 13 16 16 -6 75 -75 202 -300 423 -509
502 -121 45 -276 63 -287 34z"/>
<path d="M8825 6783 c-8 -10 -150 -204 -314 -432 l-299 -415 -204 3 c-410 5
-691 -55 -894 -191 -177 -118 -266 -306 -249 -526 15 -198 96 -353 273 -524
148 -143 339 -254 562 -329 160 -53 319 -79 526 -86 333 -11 592 38 824 157
202 104 333 251 397 445 24 72 27 95 27 230 1 172 -11 231 -74 362 -77 163
-185 286 -312 357 -78 43 -225 93 -302 102 l-59 7 7 105 c8 125 10 134 88 464
33 141 58 264 55 272 -8 21 -34 20 -52 -1z m-247 -465 c-13 -23 -29 -44 -37
-46 -8 -3 1 16 19 42 41 57 49 59 18 4z m-828 -445 c-128 -21 -300 -61 -370
-85 -98 -35 -224 -96 -266 -130 -57 -46 -69 -52 -39 -19 97 106 298 192 526
225 82 12 216 20 149 9z m-814 -580 c-11 -29 -17 -6 -9 33 7 36 8 37 11 11 2
-16 1 -36 -2 -44z m813 -54 c72 -25 90 -160 29 -216 -68 -62 -186 -15 -204 82
-9 48 21 105 66 127 41 21 65 22 109 7z m592 -12 c19 -13 40 -39 48 -61 13
-33 13 -44 0 -79 -18 -52 -55 -79 -116 -84 -59 -5 -102 19 -126 70 -20 41 -21
62 -6 106 24 68 132 94 200 48z m534 9 c72 -30 98 -127 50 -185 -53 -62 -141
-63 -199 -2 -56 58 -37 154 37 186 41 18 69 18 112 1z"/>
<path d="M6986 6214 c-63 -27 -131 -67 -140 -83 -9 -13 4 -41 18 -41 7 0 46
17 87 38 41 21 89 44 107 50 27 9 33 16 30 34 -4 32 -32 32 -102 2z"/>
<path d="M7430 6165 c-133 -22 -232 -54 -355 -115 -181 -88 -290 -188 -218
-198 14 -2 43 14 84 48 114 91 311 173 496 205 47 8 141 15 208 15 128 0 143
5 123 43 -8 15 -24 17 -136 16 -70 -1 -161 -7 -202 -14z"/>
<path d="M12938 5960 c-48 -26 -76 -67 -90 -132 -27 -134 54 -228 197 -228 72
0 106 13 146 57 39 41 49 66 49 118 0 144 -175 252 -302 185z m148 -59 c22
-10 50 -31 63 -46 44 -57 40 -108 -14 -162 -29 -29 -39 -33 -84 -33 -120 0
-178 81 -133 184 32 72 91 92 168 57z"/>
<path d="M10975 5824 c-44 -19 -90 -39 -102 -44 -15 -6 -23 -18 -23 -35 0 -33
21 -33 96 1 33 15 82 34 109 44 41 14 50 21 50 41 0 37 -38 35 -130 -7z"/>
<path d="M11105 5694 c-80 -19 -184 -73 -272 -141 -74 -56 -91 -86 -54 -98 14
-4 40 10 92 50 126 97 251 145 379 145 57 0 60 1 60 24 0 13 -7 27 -16 30 -27
10 -126 5 -189 -10z"/>
<path d="M4936 5320 c-670 -121 -1221 -221 -1224 -225 -7 -6 113 -922 174
-1335 65 -437 143 -874 160 -902 4 -7 32 -8 75 -4 104 9 942 122 1209 162 464
69 1172 202 1192 222 20 20 -32 553 -98 1012 -30 207 -167 1097 -191 1240 -8
43 -10 45 -43 47 -19 0 -583 -97 -1254 -217z m1247 123 c-3 -21 2 -78 11 -128
25 -139 151 -990 190 -1280 52 -389 68 -540 70 -650 1 -97 0 -100 -25 -112
-82 -40 -949 -180 -1878 -303 -206 -28 -387 -50 -402 -50 -62 0 -64 8 -124
360 -63 377 -259 1759 -250 1768 2 3 298 56 900 162 127 23 514 92 860 155
347 62 635 113 642 114 7 1 9 -12 6 -36z"/>
<path d="M4625 4838 c-18 -55 -192 -1054 -230 -1325 -31 -224 -32 -253 -6
-253 29 0 38 19 46 95 10 102 74 517 80 523 2 3 85 13 182 23 98 10 205 23
239 29 33 5 68 10 77 10 10 0 44 -56 100 -162 133 -258 184 -340 210 -336 34
5 31 31 -11 100 -108 176 -233 427 -477 958 -158 344 -161 350 -185 350 -12 0
-23 -6 -25 -12z m213 -488 c145 -315 157 -346 140 -352 -18 -7 -451 -59 -455
-55 -1 1 30 171 68 377 37 206 69 379 69 385 0 24 30 -34 178 -355z"/>
<path d="M5593 4275 c-98 -27 -147 -60 -136 -92 7 -20 36 -15 105 17 103 49
183 37 227 -34 21 -34 64 -146 58 -152 -2 -2 -35 -8 -74 -14 -199 -28 -323
-139 -323 -291 0 -86 39 -155 110 -192 48 -25 63 -28 116 -24 70 5 140 39 209
99 24 21 46 35 48 31 2 -5 10 -25 16 -45 10 -30 18 -38 37 -38 30 0 31 15 5
118 -11 43 -31 137 -46 210 -55 276 -110 383 -213 412 -48 13 -75 12 -139 -5z
m296 -436 c13 -61 20 -121 17 -133 -6 -25 -92 -98 -148 -127 -118 -60 -232
-11 -245 106 -14 121 91 227 249 254 111 18 102 26 127 -100z"/>
<path d="M11120 5376 c-114 -33 -202 -103 -250 -199 -16 -33 -30 -67 -30 -75
0 -11 -8 -13 -34 -8 -109 21 -296 -54 -401 -159 -91 -90 -137 -188 -143 -301
l-5 -84 -46 0 c-59 0 -139 -38 -182 -88 -49 -55 -72 -117 -75 -196 l-3 -70
-48 -37 c-151 -120 -232 -357 -189 -557 28 -136 107 -259 204 -322 l48 -31
-19 -72 c-43 -168 11 -348 148 -489 143 -147 339 -204 514 -149 l61 19 0 -47
c0 -106 86 -214 215 -273 60 -26 192 -31 268 -9 101 29 169 124 201 281 39
193 308 2312 309 2435 0 122 -21 210 -68 282 -40 61 -79 92 -160 130 -52 24
-75 28 -165 30 -64 1 -123 -3 -150 -11z m275 -75 c64 -30 108 -68 154 -135 63
-91 77 -224 42 -403 -10 -54 -29 -177 -41 -273 -12 -96 -24 -181 -26 -189 -3
-11 -11 -8 -32 12 -84 81 -254 78 -331 -7 -27 -29 -41 -33 -41 -13 0 28 -64
108 -105 133 -80 47 -145 53 -145 15 0 -24 19 -39 57 -47 39 -8 98 -56 119
-96 9 -17 21 -62 28 -102 10 -64 14 -71 34 -71 19 0 28 11 45 54 33 81 80 114
165 119 58 3 72 0 102 -20 50 -34 80 -83 80 -132 0 -23 -23 -219 -50 -436 -28
-217 -66 -525 -85 -685 -57 -473 -83 -590 -142 -656 -58 -64 -104 -83 -198
-83 -91 0 -146 20 -209 74 -59 53 -80 102 -81 192 -1 105 -7 109 -96 69 -128
-57 -246 -51 -383 22 -74 39 -171 134 -208 203 -57 105 -71 224 -40 319 15 43
20 50 42 48 14 -1 57 -5 95 -8 65 -6 128 4 186 29 11 5 23 -4 41 -31 37 -55
77 -92 128 -118 183 -91 416 -32 496 127 33 66 42 139 19 158 -26 22 -49 0
-57 -55 -17 -118 -111 -195 -248 -203 -141 -8 -242 45 -292 155 -15 35 -34 63
-42 63 -7 0 -35 -12 -62 -27 -42 -24 -60 -28 -129 -28 -99 1 -201 31 -265 79
-97 72 -155 232 -148 405 3 88 7 103 45 182 57 116 130 190 216 217 34 11 80
24 102 29 33 7 40 13 40 33 0 23 -3 25 -50 24 -27 -1 -63 -3 -80 -5 -27 -4
-30 -1 -33 24 -9 80 72 194 153 216 81 22 90 18 130 -58 40 -76 59 -90 85 -66
17 15 16 20 -19 87 -34 66 -36 77 -36 162 0 82 3 98 32 159 43 91 127 178 215
221 79 40 165 61 214 51 l34 -6 0 -61 c0 -78 15 -128 53 -173 22 -27 36 -35
56 -33 35 4 39 34 8 66 -38 40 -47 74 -47 171 0 74 4 95 26 139 31 62 87 113
169 152 117 56 206 59 310 11z"/>
<path d="M12099 5266 c-141 -38 -232 -146 -279 -331 -22 -87 -307 -2269 -317
-2426 -9 -153 23 -254 99 -310 86 -61 124 -73 238 -74 96 0 110 3 163 29 75
36 123 85 156 157 l26 57 55 -34 c112 -69 276 -82 419 -33 80 27 198 106 251
167 84 97 140 260 124 360 l-6 39 47 13 c150 42 297 213 334 388 16 75 14 217
-4 285 -17 64 -55 146 -91 194 -23 30 -23 33 -8 75 47 130 -49 329 -177 367
-35 11 -40 15 -34 34 3 12 9 58 12 103 16 224 -148 456 -372 525 l-74 23 -7
51 c-12 89 -42 152 -103 214 -113 115 -300 168 -452 127z m222 -62 c164 -48
272 -187 272 -351 0 -91 -38 -175 -95 -212 -41 -26 -49 -55 -19 -70 14 -8 29
-4 65 19 37 24 53 44 76 93 17 34 30 75 30 91 0 28 1 28 41 23 120 -16 263
-136 314 -265 37 -92 47 -164 34 -236 -13 -75 -37 -122 -94 -186 -38 -43 -44
-54 -35 -70 17 -32 41 -23 97 36 49 54 54 56 89 51 82 -13 153 -108 154 -204
0 -28 -4 -63 -9 -76 l-9 -24 -58 28 c-159 76 -313 56 -434 -57 -26 -24 -55
-59 -66 -79 -10 -19 -21 -35 -24 -35 -3 0 -16 16 -29 35 -54 79 -152 133 -259
142 -86 7 -136 -6 -140 -35 -4 -29 7 -32 114 -35 63 -2 99 -8 123 -21 60 -32
117 -94 145 -157 22 -49 32 -60 48 -57 12 2 24 10 28 18 4 8 19 40 33 71 33
73 73 118 135 152 101 55 223 44 345 -30 215 -130 226 -511 21 -716 -63 -62
-120 -94 -199 -112 l-50 -12 0 -119 c0 -114 -1 -122 -32 -184 -76 -154 -213
-252 -388 -280 -118 -19 -248 18 -332 94 -59 52 -93 44 -93 -21 0 -46 -25
-101 -63 -142 -123 -129 -368 -101 -453 52 l-29 52 1 185 c0 156 4 208 27 335
30 165 67 438 187 1375 45 344 88 648 96 675 67 211 242 315 435 259z"/>
<path d="M12173 4498 c-84 -87 -83 -208 4 -290 57 -54 159 -73 222 -40 41 20
48 34 26 55 -12 12 -22 14 -41 7 -84 -32 -185 16 -206 98 -10 36 10 88 48 129
39 41 41 67 4 71 -18 2 -35 -7 -57 -30z"/>
<path d="M12033 3440 c-87 -50 -133 -128 -133 -225 0 -58 19 -116 48 -149 24
-27 111 -66 148 -66 l31 0 5 -74 c8 -128 79 -210 204 -236 100 -21 223 20 278
93 49 64 71 162 42 186 -23 20 -56 -4 -56 -39 0 -59 -42 -125 -100 -155 -74
-38 -195 -26 -248 26 -44 43 -56 88 -48 181 4 43 3 79 -1 79 -5 1 -35 2 -69 3
-74 2 -120 27 -152 82 -45 77 -13 172 79 231 72 47 75 50 63 70 -17 27 -34 26
-91 -7z"/>
<path d="M3538 3568 c-3 -7 8 -60 24 -118 15 -58 60 -246 98 -419 38 -173 74
-319 79 -324 5 -5 17 -7 27 -5 14 2 19 12 18 33 -1 47 -152 708 -185 813 -8
24 -16 32 -34 32 -13 0 -25 -6 -27 -12z"/>
<path d="M3483 2964 c-7 -19 29 -148 64 -227 21 -47 30 -57 47 -55 15 2 21 10
19 28 -2 30 -72 240 -86 258 -13 17 -36 15 -44 -4z"/>
<path d="M9723 2725 c-8 -22 22 -96 68 -164 69 -104 189 -202 331 -272 65 -32
69 -33 85 -15 22 21 21 22 -112 99 -131 76 -235 179 -287 284 -30 60 -47 83
-60 83 -10 0 -21 -7 -25 -15z"/>
<path d="M10000 1225 c-10 -13 -10 -19 4 -34 16 -18 15 -19 -19 -25 -20 -4
-35 -13 -35 -21 0 -11 7 -12 32 -4 18 5 52 9 75 9 24 0 43 5 43 10 0 6 -16 10
-35 10 -36 0 -43 8 -23 28 8 8 8 15 -2 27 -16 19 -24 19 -40 0z"/>
<path d="M9990 1130 c-107 -23 -180 -104 -180 -201 0 -48 0 -48 38 -56 56 -11
211 -8 262 6 25 7 71 24 103 38 66 30 66 34 14 116 -54 86 -133 118 -237 97z
m13 -102 c17 -23 18 -31 8 -57 -7 -16 -26 -35 -42 -42 -26 -10 -34 -9 -57 8
-32 24 -39 65 -17 99 23 35 79 30 108 -8z m187 12 c8 -14 8 -26 0 -40 -19 -35
-80 -20 -80 20 0 40 61 55 80 20z"/>
<path d="M10274 1106 c-8 -32 -11 -32 -41 -5 -20 20 -23 20 -29 6 -4 -10 3
-28 17 -46 13 -15 29 -36 35 -46 14 -26 38 -11 24 15 -13 25 -2 70 17 70 17 0
13 22 -5 28 -6 2 -14 -8 -18 -22z"/>
<path d="M7216 1094 c-3 -9 -6 -35 -6 -60 l0 -44 -35 17 c-77 37 -155 -21
-155 -114 0 -103 73 -164 150 -125 33 16 36 16 52 0 10 -10 24 -15 33 -12 13
5 15 34 15 180 l0 174 -24 0 c-13 0 -27 -7 -30 -16z m-27 -150 c40 -51 17
-134 -36 -134 -41 0 -63 27 -63 77 0 75 58 109 99 57z"/>
<path d="M7834 1096 c-10 -26 4 -48 28 -44 17 2 23 10 23 28 0 18 -6 26 -23
28 -13 2 -25 -3 -28 -12z"/>
<path d="M8947 1104 c-4 -4 -7 -31 -7 -61 0 -29 -2 -53 -4 -53 -2 0 -17 7 -32
15 -54 28 -119 10 -142 -40 -17 -37 -15 -120 4 -156 28 -54 95 -68 152 -31 19
13 22 12 22 -1 0 -20 25 -28 44 -14 14 11 16 34 14 177 -3 157 -4 165 -23 168
-12 2 -24 0 -28 -4z m-37 -154 c25 -25 27 -95 3 -122 -9 -10 -29 -18 -44 -18
-55 0 -79 82 -38 134 24 31 52 33 79 6z"/>
<path d="M9147 1103 c-4 -3 -7 -79 -7 -168 0 -126 3 -165 14 -174 17 -14 46
-4 46 16 0 12 3 13 14 4 50 -41 132 -27 160 28 19 36 21 119 4 156 -23 50 -88
68 -142 40 -15 -8 -30 -15 -32 -15 -2 0 -4 27 -4 60 0 56 -1 60 -23 60 -13 0
-27 -3 -30 -7z m162 -159 c40 -51 17 -134 -36 -134 -41 0 -63 27 -63 77 0 75
58 109 99 57z"/>
<path d="M10451 1096 c-7 -8 -15 -30 -18 -50 -4 -26 -11 -36 -24 -36 -12 0
-19 -7 -19 -20 0 -13 7 -20 20 -20 19 0 20 -7 20 -94 0 -105 13 -136 51 -116
17 10 19 22 19 110 0 100 0 100 25 100 18 0 25 5 25 20 0 15 -7 20 -26 20 -22
0 -25 4 -22 28 2 22 8 28 36 30 24 2 32 8 32 23 0 16 -7 19 -54 19 -34 0 -58
-5 -65 -14z"/>
<path d="M11566 1094 c-9 -22 12 -46 38 -42 15 2 21 10 21 28 0 20 -6 26 -26
28 -18 2 -29 -3 -33 -14z"/>
<path d="M11687 1103 c-4 -3 -7 -80 -7 -169 0 -151 1 -164 19 -174 27 -14 51
12 51 54 0 19 7 39 15 46 18 15 15 18 50 -40 32 -53 52 -71 71 -63 23 9 16 42
-23 104 l-36 60 26 27 c30 32 35 60 11 69 -10 4 -32 -11 -65 -43 l-49 -48 0
76 c0 42 -3 83 -6 92 -6 16 -45 22 -57 9z"/>
<path d="M9800 1050 c-13 -24 -38 -26 -46 -5 -7 18 -34 20 -34 2 0 -7 13 -17
28 -23 25 -10 28 -15 24 -47 -3 -29 -1 -37 12 -37 10 0 16 9 16 23 0 12 8 39
19 59 10 21 16 40 13 43 -10 10 -21 5 -32 -15z"/>
<path d="M7374 1006 c-46 -21 -64 -52 -64 -114 0 -103 45 -140 163 -134 31 2
77 42 77 67 0 22 -43 19 -65 -5 -26 -29 -69 -26 -94 6 -12 15 -21 31 -21 35 0
5 33 9 74 9 41 0 81 3 90 6 27 10 20 69 -12 105 -33 37 -98 48 -148 25z m100
-58 c9 -12 16 -26 16 -30 0 -5 -27 -8 -60 -8 -33 0 -60 3 -60 8 0 23 34 52 60
52 18 0 34 -8 44 -22z"/>
<path d="M7620 1008 c-14 -8 -31 -26 -39 -42 -12 -25 -11 -31 6 -55 13 -16 40
-32 72 -41 59 -18 76 -32 68 -54 -11 -27 -72 -20 -96 10 -23 30 -55 29 -59 -2
-9 -61 142 -94 197 -43 31 29 28 82 -5 108 -15 12 -32 21 -38 21 -6 0 -28 5
-48 11 -40 11 -53 41 -22 53 25 9 31 8 63 -20 17 -14 38 -23 46 -20 21 8 19
40 -4 60 -25 22 -109 31 -141 14z"/>
<path d="M7837 1014 c-4 -4 -7 -60 -7 -124 0 -92 3 -120 15 -130 12 -10 18
-10 30 0 13 11 15 35 13 134 -3 113 -4 121 -23 124 -12 2 -24 0 -28 -4z"/>
<path d="M7973 1000 c-73 -44 -65 -193 13 -228 34 -16 59 -15 94 3 29 15 30
15 30 -8 0 -59 -60 -83 -107 -43 -46 39 -82 31 -68 -14 11 -34 61 -53 126 -48
99 7 119 43 119 219 0 73 -4 111 -14 124 -15 21 -46 15 -46 -10 0 -12 -5 -11
-32 5 -42 25 -74 25 -115 0z m117 -50 c43 -43 15 -140 -40 -140 -33 0 -60 35
-60 80 0 45 27 80 60 80 11 0 29 -9 40 -20z"/>
<path d="M8227 1013 c-4 -3 -7 -59 -7 -123 0 -123 8 -148 44 -134 13 5 16 21
16 78 0 74 13 111 43 130 12 8 22 8 35 0 13 -9 18 -30 22 -103 6 -97 17 -119
52 -100 15 8 18 23 18 99 0 49 -5 100 -11 113 -21 47 -89 61 -131 28 -24 -19
-24 -19 -36 0 -12 19 -33 25 -45 12z"/>
<path d="M8555 1011 c-88 -39 -101 -184 -20 -237 58 -38 175 -10 183 45 4 27
-21 28 -55 1 -34 -27 -78 -26 -97 2 -30 42 -22 48 63 48 96 0 110 11 92 69 -6
22 -23 46 -38 56 -31 21 -99 29 -128 16z m95 -60 c18 -35 12 -41 -45 -41 -59
0 -68 10 -38 42 22 24 69 24 83 -1z"/>
<path d="M9407 1013 c-13 -13 -6 -42 34 -144 49 -121 47 -151 -11 -159 -27 -4
-35 -10 -35 -25 0 -17 8 -20 47 -23 62 -4 75 10 122 130 72 187 76 202 61 217
-23 24 -41 5 -70 -76 -15 -43 -31 -82 -35 -86 -4 -5 -18 22 -30 60 -32 99 -58
132 -83 106z"/>
<path d="M10569 993 c-6 -16 -9 -72 -7 -126 3 -104 13 -125 50 -106 15 8 18
22 18 79 0 38 5 81 10 95 9 24 15 26 52 23 36 -2 43 0 46 16 8 38 -62 62 -88
31 -12 -14 -15 -14 -30 0 -24 22 -39 19 -51 -12z"/>
<path d="M10794 1001 c-38 -23 -44 -32 -55 -80 -11 -47 5 -107 37 -136 44 -41
134 -40 179 1 46 42 8 74 -41 35 -45 -35 -94 -23 -109 27 -6 21 -4 22 69 22
95 0 106 4 106 44 0 84 -108 135 -186 87z m110 -53 c9 -12 16 -26 16 -30 0 -5
-27 -8 -60 -8 -33 0 -60 3 -60 8 0 23 34 52 60 52 18 0 34 -8 44 -22z"/>
<path d="M11075 1006 c-37 -16 -53 -35 -65 -77 -13 -45 -2 -104 25 -133 46
-50 142 -54 191 -9 45 42 7 73 -42 34 -34 -26 -68 -27 -94 -1 -39 39 -27 50
54 50 95 0 106 4 106 44 0 80 -92 128 -175 92z m102 -66 l12 -25 -55 -3 c-31
-2 -59 -1 -61 2 -3 3 2 17 11 31 23 35 75 32 93 -5z"/>
<path d="M11284 1007 c-2 -7 -3 -87 -2 -177 l3 -165 25 0 c24 0 25 3 28 61 l3
61 38 -19 c33 -16 42 -17 76 -6 92 31 103 197 15 243 -39 20 -72 19 -102 -4
-24 -19 -24 -19 -36 0 -14 22 -40 25 -48 6z m159 -54 c25 -29 30 -67 13 -107
-13 -32 -19 -36 -50 -36 -30 0 -38 5 -52 31 -39 76 36 170 89 112z"/>
<path d="M11570 1001 c-5 -11 -10 -65 -10 -120 0 -77 4 -103 16 -115 12 -12
20 -13 35 -6 17 10 19 22 19 123 0 112 -7 137 -37 137 -7 0 -17 -9 -23 -19z"/>
<path d="M12123 1005 c-40 -17 -63 -61 -63 -120 0 -86 37 -124 118 -125 63 0
109 21 118 55 13 52 -20 60 -64 15 -35 -35 -51 -37 -82 -12 -32 26 -38 90 -10
125 27 34 59 35 90 2 41 -43 86 -24 60 25 -24 44 -106 62 -167 35z"/>
<path d="M12390 1003 c-76 -39 -91 -151 -29 -213 30 -29 52 -35 114 -31 69 5
110 63 102 144 -9 94 -102 144 -187 100z m102 -50 c24 -28 30 -70 14 -107 -33
-79 -116 -44 -116 48 0 63 66 101 102 59z"/>
<path d="M12617 1013 c-4 -3 -7 -59 -7 -124 0 -104 2 -119 18 -128 33 -18 46
3 50 81 4 99 9 116 33 123 38 12 49 -11 49 -106 0 -77 2 -90 19 -99 36 -19 51
11 51 99 0 66 3 81 21 97 15 14 24 16 37 8 13 -9 18 -31 22 -103 5 -97 17
-119 52 -100 16 8 18 24 18 110 0 93 -2 102 -25 124 -28 29 -63 32 -106 10
-27 -14 -32 -14 -51 0 -28 19 -61 19 -98 0 -25 -13 -29 -13 -34 0 -5 15 -37
20 -49 8z"/>
<path d="M10209 894 c-78 -39 -206 -59 -302 -47 -45 5 -83 9 -85 7 -8 -6 30
-64 58 -87 38 -32 81 -41 175 -35 115 8 198 67 212 153 6 40 4 40 -58 9z"/>
<path d="M11958 819 c-38 -22 -10 -73 33 -62 24 7 26 58 3 67 -19 7 -15 8 -36
-5z"/>
</g>
</svg>
