<?xml version="1.0" standalone="no"?>
<!DOCTYPE svg PUBLIC "-//W3C//DTD SVG 20010904//EN"
 "http://www.w3.org/TR/2001/REC-SVG-20010904/DTD/svg10.dtd">
<svg version="1.0" xmlns="http://www.w3.org/2000/svg"
 width="2000.000000pt" height="2000.000000pt" viewBox="0 0 2000.000000 2000.000000"
 preserveAspectRatio="xMidYMid meet">

<g transform="translate(0.000000,2000.000000) scale(0.100000,-0.100000)"
fill="#000000" stroke="none">
<path d="M16596 17850 c-37 -94 -65 -177 -62 -185 4 -10 14 -14 28 -10 21 5
353 55 363 55 3 0 5 8 5 18 -1 22 -227 286 -249 290 -13 2 -32 -35 -85 -168z
m184 3 l91 -108 -108 -17 c-59 -9 -124 -19 -145 -22 l-36 -6 51 130 c29 71 53
130 54 130 1 0 43 -48 93 -107z"/>
<path d="M11336 17780 c-169 -29 -323 -125 -387 -240 l-24 -45 -135 -1 c-177
-1 -245 -21 -356 -105 -103 -79 -189 -248 -209 -414 l-8 -57 31 16 c61 32 153
10 182 -43 8 -15 21 -21 45 -21 30 0 37 5 48 33 8 17 21 38 30 46 9 7 15 16
13 20 -5 8 6 10 94 17 57 5 69 2 100 -18 71 -47 92 -152 46 -221 -13 -19 -21
-38 -18 -42 4 -4 3 -6 -3 -4 -5 1 -28 -6 -50 -15 -49 -22 -93 -23 -132 -2 -40
20 -83 71 -90 107 -6 31 -33 45 -59 31 -10 -5 -25 -36 -35 -69 -14 -45 -25
-63 -44 -71 -41 -19 -103 -15 -136 9 l-29 20 0 -44 c0 -143 103 -309 244 -391
l66 -39 -6 -56 c-4 -31 -8 -57 -9 -59 -2 -2 -21 6 -44 17 -49 26 -82 27 -110
4 -19 -16 -21 -30 -23 -141 l-3 -124 -72 -28 c-40 -15 -89 -37 -109 -49 -20
-12 -38 -20 -40 -18 -2 2 -55 225 -119 497 -106 456 -117 497 -150 547 -65 98
-168 153 -287 153 -39 0 -261 -47 -685 -145 -345 -80 -638 -148 -649 -151 -18
-5 -27 5 -54 53 -111 197 -292 400 -470 526 -173 122 -389 215 -610 263 -68
15 -128 19 -305 19 -193 0 -233 -3 -323 -23 -282 -63 -527 -186 -726 -363
-288 -257 -471 -600 -521 -976 -108 -811 419 -1570 1215 -1752 52 -12 124 -25
160 -29 62 -7 65 -9 63 -32 -2 -14 -5 -57 -9 -96 -12 -129 42 -295 134 -411
57 -72 113 -103 200 -110 85 -7 128 6 176 53 21 20 38 35 40 33 2 -2 69 -292
150 -644 81 -352 156 -670 166 -706 34 -116 133 -201 252 -215 42 -5 89 3 231
36 98 23 180 40 183 37 2 -2 -85 -63 -194 -136 l-199 -131 -921 0 c-507 0
-922 1 -922 3 0 2 6 26 14 53 8 27 22 90 31 139 8 50 22 127 31 171 8 45 16
124 17 175 l2 94 -657 3 -658 2 0 654 c0 424 -4 657 -10 661 -18 11 -236 -15
-332 -39 -484 -123 -860 -500 -973 -976 -39 -166 -68 -351 -73 -475 -16 -414
166 -816 491 -1081 l37 -31 -59 -45 c-244 -190 -462 -439 -624 -712 -181 -306
-296 -668 -328 -1036 -14 -165 -7 -520 16 -710 77 -659 287 -1410 563 -2010
59 -127 61 -129 112 -116 24 7 27 2 79 -121 80 -188 122 -273 135 -273 7 0
156 49 332 109 175 59 757 256 1292 437 536 180 980 333 988 339 13 9 9 23
-24 95 -94 204 -194 505 -239 719 -30 148 -37 340 -14 431 42 172 172 333 330
409 80 38 226 80 238 67 3 -3 1 -54 -5 -113 -172 -1678 -353 -3449 -359 -3511
l-6 -63 -49 -25 c-26 -13 -53 -33 -60 -43 -11 -19 -13 -18 -47 11 -67 59 -113
73 -241 73 -129 0 -184 -15 -235 -63 l-30 -29 -10 41 -11 41 -224 0 -225 0 -3
-633 -2 -632 255 0 255 0 0 279 c0 234 2 281 15 291 8 7 22 10 30 6 13 -5 15
-45 15 -291 l0 -285 214 0 c118 0 217 -3 219 -7 2 -5 -24 -280 -59 -613 -35
-333 -63 -613 -64 -622 0 -16 13 -18 145 -18 109 0 145 -3 145 -12 0 -7 -7
-88 -17 -179 -9 -91 -14 -173 -10 -182 6 -16 117 -17 1576 -17 863 0 1572 4
1575 9 5 7 84 776 412 3976 46 457 118 1161 160 1565 41 404 78 768 81 807 l6
73 173 88 c96 49 176 86 179 84 3 -3 5 -1402 5 -3109 l0 -3103 125 0 125 0 2
-192 3 -193 1575 0 1575 0 3 345 2 345 78 40 c42 21 129 74 192 116 514 345
835 910 867 1526 l6 123 -569 2 -569 3 -3 197 -2 197 47 3 48 3 0 60 0 60 285
5 285 5 -2 95 c-2 154 -58 322 -156 473 -19 29 -50 77 -69 107 -85 134 -213
254 -360 335 l-73 41 -3 476 -2 477 37 3 38 3 0 570 0 570 -38 3 -37 3 2 207
3 207 893 3 892 2 -1 663 c-1 364 -5 964 -8 1332 l-6 670 -125 5 -125 5 -3
187 -2 188 -1621 2 -1620 3 62 50 c159 126 261 321 276 525 8 117 -4 178 -98
495 -44 149 -82 293 -85 321 l-5 50 58 18 c240 75 426 265 504 516 19 61 23
98 24 200 0 189 -11 222 -203 600 l-164 325 260 -253 c143 -138 265 -259 272
-267 9 -11 6 -26 -17 -72 -23 -47 -28 -71 -28 -128 1 -115 59 -205 168 -263
45 -23 63 -27 142 -27 75 0 98 4 139 24 63 31 122 90 149 150 31 66 30 180 -1
239 -13 24 -22 47 -20 51 3 7 634 572 679 609 13 10 28 6 83 -23 59 -31 77
-35 139 -35 91 0 133 12 197 56 30 20 56 32 63 27 16 -9 850 -623 860 -632 4
-4 -3 -27 -15 -52 -31 -61 -31 -175 -1 -240 27 -60 86 -119 149 -150 41 -20
64 -24 139 -24 79 0 97 4 142 27 110 58 167 148 167 263 1 82 -22 141 -77 202
-105 116 -306 131 -430 32 -21 -17 -42 -27 -49 -23 -16 10 -851 624 -861 633
-4 4 3 30 15 57 48 107 22 240 -62 324 -64 64 -121 85 -230 85 -79 0 -102 -4
-137 -23 -63 -33 -106 -74 -139 -134 -25 -46 -29 -63 -29 -133 0 -70 4 -87 31
-136 l30 -56 -349 -311 -349 -311 -37 29 c-100 81 -268 86 -376 11 l-40 -27
-307 299 -306 299 28 45 c102 160 31 366 -149 434 -43 16 -74 20 -133 18 l-77
-3 -68 51 c-96 72 -168 110 -281 148 -149 50 -349 85 -489 85 l-53 0 0 54 c0
67 -26 106 -71 106 l-31 0 8 128 c3 70 8 130 11 135 2 4 19 7 36 7 76 1 171
78 195 159 28 93 -2 202 -72 257 -26 21 -36 37 -36 58 l0 28 83 -7 c119 -9
138 -18 207 -92 86 -92 144 -128 228 -143 125 -23 254 20 353 117 43 40 93
128 86 147 -3 8 -29 15 -64 18 -123 12 -210 90 -293 264 -143 298 -142 296
-215 370 -53 54 -84 76 -125 91 -68 25 -149 34 -214 23z m-4226 -303 c201 -48
392 -134 557 -250 101 -71 277 -243 343 -335 55 -76 140 -215 135 -220 -6 -6
-205 -52 -224 -52 -11 0 -40 34 -77 88 -116 171 -311 338 -507 430 -194 93
-364 126 -599 119 -139 -4 -158 -2 -162 12 -8 24 -36 194 -36 213 0 23 37 26
270 23 168 -2 210 -6 300 -28z m-593 -120 l20 -117 -26 -6 c-479 -106 -858
-471 -977 -942 -33 -130 -47 -296 -35 -413 5 -52 8 -96 6 -97 -7 -8 -245 -45
-251 -40 -14 15 -26 173 -21 288 18 399 170 745 456 1031 141 140 254 222 415
299 140 66 370 138 387 121 4 -3 16 -59 26 -124z m469 -152 c296 -51 561 -202
747 -425 70 -83 131 -169 125 -175 -2 -3 -217 -54 -476 -114 -351 -82 -485
-117 -522 -137 -97 -53 -164 -156 -176 -270 -6 -61 2 -102 209 -987 36 -155
41 -187 28 -181 -42 19 -96 15 -131 -8 -35 -24 -45 -46 -66 -143 l-9 -39 -52
3 c-29 1 -99 13 -156 26 -356 80 -662 317 -830 642 -212 410 -184 891 75 1279
66 99 218 252 321 322 151 104 357 185 533 211 98 14 285 12 380 -4z m3614
-141 c0 -8 -19 -13 -24 -6 -3 5 1 9 9 9 8 0 15 -2 15 -3z m-13 -399 c0 -8 -4
-12 -9 -9 -5 3 -6 10 -3 15 9 13 12 11 12 -6z m-1036 -105 c5 0 15 -10 23 -22
22 -34 129 -504 122 -533 -4 -14 -15 -29 -25 -35 -11 -5 -525 -127 -1143 -270
-618 -144 -1160 -270 -1206 -280 -107 -26 -127 -25 -149 4 -12 14 -41 118 -77
275 -71 305 -74 288 66 321 51 11 602 139 1223 284 622 145 1136 262 1143 260
8 -2 18 -4 23 -4z m1647 -392 c8 -8 12 -46 12 -105 l0 -93 -240 -120 -239
-120 -181 82 -180 82 0 109 c0 79 3 109 13 113 7 2 84 -29 171 -71 87 -41 168
-75 179 -75 12 1 114 48 227 105 113 57 210 104 216 105 5 0 15 -5 22 -12z
m345 -173 c185 -32 344 -92 469 -176 81 -54 193 -167 244 -244 61 -93 529
-1031 554 -1110 105 -343 -86 -730 -427 -864 -64 -25 -153 -43 -588 -121 -187
-33 -351 -63 -364 -66 l-23 -5 7 78 c18 212 -52 488 -171 669 -24 37 -42 69
-39 72 2 2 163 44 357 92 431 107 681 184 676 208 -3 15 -23 17 -203 14 l-200
-3 -230 327 c-126 180 -236 329 -242 332 -45 14 -9 -49 190 -330 265 -375 301
-427 296 -432 -9 -8 -993 -245 -1000 -241 -4 3 -56 84 -115 182 -73 117 -119
182 -139 195 -56 34 -143 17 -179 -34 -9 -12 -17 -20 -19 -17 -3 2 -36 144
-76 314 -39 171 -102 442 -139 603 l-69 294 38 23 c48 31 154 74 199 81 29 5
63 -7 200 -70 90 -42 173 -76 183 -76 10 0 131 57 268 128 l249 127 0 39 0 39
106 -7 c58 -4 142 -13 187 -21z m808 -282 c93 -42 149 -127 149 -228 0 -59
-25 -135 -49 -149 -7 -5 -28 29 -57 89 -50 105 -117 210 -170 265 -19 20 -34
40 -34 44 0 15 115 -1 161 -21z m2219 11 c67 -20 150 -99 168 -160 29 -98 10
-176 -61 -249 -42 -43 -64 -57 -111 -70 -180 -52 -346 64 -346 242 1 176 170
290 350 237z m-9055 -6 c2 -7 15 -56 29 -108 31 -113 104 -269 177 -377 63
-93 217 -250 313 -317 156 -111 356 -191 553 -222 59 -10 110 -19 112 -20 2
-2 -7 -56 -19 -120 l-23 -116 -61 7 c-622 68 -1153 531 -1311 1143 -14 52 -23
97 -21 99 5 6 194 41 224 42 12 1 24 -5 27 -11z m4565 -23 c0 -2 72 -314 160
-693 88 -379 160 -696 160 -704 0 -12 -23 -18 -102 -25 -58 -6 -113 -7 -125
-2 -30 11 -368 -65 -403 -90 -18 -13 -26 -29 -28 -57 -2 -23 37 -212 98 -474
109 -470 113 -480 175 -480 26 0 290 56 358 76 34 10 57 46 57 90 0 42 0 42
40 46 50 4 62 -2 126 -67 44 -45 53 -60 59 -103 14 -105 -50 -224 -142 -265
-21 -10 -495 -123 -1053 -252 -558 -130 -1159 -269 -1336 -310 -176 -41 -333
-75 -347 -75 -77 0 -182 70 -220 146 -20 39 -350 1461 -344 1478 4 10 147 86
162 86 2 0 16 -55 31 -122 24 -103 33 -127 57 -150 39 -37 68 -36 254 8 227
53 231 60 168 324 -30 128 -37 148 -65 173 -39 35 -61 34 -237 -7 l-142 -33
29 27 c17 16 30 37 30 48 0 17 16 24 117 47 94 22 123 33 145 55 37 37 36 63
-7 252 -31 135 -39 156 -65 181 -20 18 -41 27 -63 27 -37 0 -248 -45 -455 -97
-78 -20 -144 -34 -147 -32 -9 9 -59 249 -53 254 6 6 3067 721 3096 724 6 1 12
-1 12 -4z m-2413 -908 c10 -13 33 -91 53 -176 45 -200 47 -196 -107 -233
l-112 -28 -26 24 c-25 24 -26 25 -7 35 11 6 25 24 32 41 18 42 -1 103 -40 132
-23 17 -27 25 -20 39 16 28 11 81 -9 114 l-18 30 86 21 c116 30 145 30 168 1z
m5755 -89 c65 -28 122 -92 144 -162 15 -49 16 -65 6 -112 -24 -117 -126 -203
-250 -212 -170 -12 -318 147 -283 304 22 95 98 172 199 200 56 16 120 10 184
-18z m2497 21 c104 -22 189 -104 212 -203 35 -157 -113 -316 -283 -304 -124 9
-226 95 -250 212 -28 130 66 261 209 295 52 12 56 12 112 0z m-8129 -497 c17
-13 30 -51 56 -157 40 -170 42 -197 11 -222 -30 -23 -308 -87 -343 -79 -31 8
-45 39 -74 173 l-23 102 31 36 c23 25 32 46 32 70 l0 33 123 30 c146 36 159
37 187 14z m3400 -62 c94 -139 160 -320 179 -495 13 -108 5 -254 -14 -261 -24
-9 -406 -71 -403 -65 2 3 15 29 30 57 54 102 73 287 44 436 -18 91 -32 123
-96 227 -28 46 -49 86 -45 89 5 6 230 67 257 71 4 1 26 -26 48 -59z m-1251 -9
c-14 -41 -5 -88 25 -125 23 -30 23 -30 5 -60 -24 -39 -25 -113 -3 -145 9 -13
34 -31 56 -41 33 -15 36 -19 24 -30 -9 -6 -18 -27 -22 -45 -10 -53 23 -98 87
-118 13 -4 15 -15 12 -54 -4 -38 -1 -53 16 -75 25 -32 94 -57 178 -65 61 -6
61 -6 68 -41 4 -23 2 -39 -7 -48 -21 -21 -355 -96 -377 -85 -13 7 -41 111
-120 453 -57 247 -99 451 -96 460 4 10 23 22 44 27 68 17 116 28 119 26 1 -1
-3 -16 -9 -34z m-5267 -818 l3 -658 654 -3 654 -2 -6 -93 c-18 -275 -164 -587
-367 -786 -262 -257 -560 -381 -916 -381 -207 0 -385 38 -553 120 -266 129
-481 340 -605 595 -91 187 -125 318 -133 520 -20 488 222 927 650 1177 165 96
390 163 564 167 l53 1 2 -657z m7579 160 c4 -85 10 -83 -310 -82 l-276 1 280
53 c154 29 286 53 293 54 7 0 13 -11 13 -26z m-3401 -985 c0 -2 -11 -36 -25
-77 -54 -159 -69 -357 -40 -522 8 -46 57 -239 110 -429 52 -190 102 -376 111
-415 14 -62 209 -687 361 -1158 30 -92 60 -170 68 -173 7 -3 76 26 153 65 77
39 141 71 144 71 2 0 15 -22 28 -50 l23 -49 -23 -19 -22 -18 26 -52 27 -53
-27 -35 c-15 -19 -29 -32 -32 -30 -2 3 -8 26 -13 52 -12 64 -32 92 -73 99 -83
16 -154 -74 -116 -146 10 -17 7 -19 -36 -19 -39 0 -51 -5 -80 -34 -39 -39 -45
-81 -14 -113 28 -31 52 -35 116 -24 32 6 59 9 61 7 2 -2 -81 -101 -184 -221
-210 -242 -225 -263 -253 -354 -22 -71 -25 -126 -9 -186 15 -59 92 -205 107
-205 8 0 122 54 254 121 132 66 241 119 243 117 3 -3 -151 -1524 -299 -2963
-19 -181 -92 -896 -162 -1587 l-129 -1258 -1537 0 -1538 0 0 23 c0 12 28 283
61 602 34 319 63 603 65 630 16 194 47 484 54 505 5 15 9 -92 9 -263 l1 -287
258 2 257 3 0 515 0 515 -24 59 c-45 113 -133 178 -266 197 -34 4 -85 5 -114
0 l-53 -8 6 41 c3 22 15 131 26 241 26 265 136 1343 155 1520 8 77 33 318 55
535 22 217 71 701 110 1075 39 381 65 684 60 689 -4 4 -95 6 -202 3 -216 -5
-271 -16 -408 -83 -108 -54 -234 -181 -284 -287 -53 -112 -69 -191 -68 -332 1
-232 110 -637 258 -962 19 -42 33 -78 31 -79 -3 -3 -403 -139 -1757 -596 -212
-71 -477 -161 -589 -199 -113 -38 -206 -67 -208 -66 -10 11 -107 230 -165 377
-223 558 -379 1172 -444 1745 -25 212 -25 627 -1 790 82 549 311 1009 697
1395 96 96 257 234 287 247 7 3 34 -9 60 -25 130 -83 295 -149 456 -184 133
-28 389 -30 512 -4 123 27 281 82 375 132 256 136 489 384 597 634 l38 90 893
0 c490 0 892 -2 892 -3 0 -2 -144 -98 -320 -213 -189 -124 -320 -215 -320
-225 0 -8 32 -56 70 -106 39 -50 70 -94 70 -96 0 -3 -19 -20 -41 -38 -37 -29
-42 -31 -51 -16 -13 24 -28 21 -76 -14 -44 -32 -60 -32 -102 1 -20 16 -22 20
-8 20 10 0 36 7 59 17 54 21 76 67 56 115 -8 18 -24 42 -36 53 -28 24 -84 25
-110 1 -19 -17 -19 -16 -26 16 -10 49 -32 78 -71 94 -43 18 -82 3 -102 -39
-12 -24 -11 -36 7 -89 12 -34 20 -62 18 -64 -1 -1 -110 61 -242 137 -308 179
-387 204 -522 164 -56 -17 -213 -128 -213 -151 0 -10 731 -964 779 -1016 10
-12 254 -38 350 -38 50 0 91 -3 90 -7 0 -5 -52 -48 -115 -96 -64 -49 -118 -95
-121 -102 -6 -17 217 -305 236 -305 8 0 42 21 75 47 81 63 609 513 618 526 3
6 4 15 2 21 -5 14 72 69 85 62 5 -4 51 -60 101 -127 51 -66 98 -123 105 -125
10 -4 953 617 998 656 5 4 -36 171 -92 371 -55 200 -105 393 -112 429 -17 90
-15 309 4 395 34 161 58 215 93 215 8 0 14 -1 14 -2z m6494 -1235 c3 -423 8
-1005 10 -1295 l4 -528 -894 0 -894 0 0 -420 0 -420 -317 -2 -318 -3 0 -570 0
-570 318 -3 317 -2 0 -435 0 -434 -62 -3 -63 -3 -3 -277 -2 -276 -75 5 -75 6
0 -302 0 -301 35 0 34 0 3 -57 3 -58 103 -3 102 -3 0 -194 0 -195 -255 0 -255
0 0 958 c0 526 -4 963 -9 970 -6 11 -57 12 -247 8 -217 -4 -252 -7 -379 -34
-481 -103 -893 -363 -1179 -742 -265 -351 -397 -746 -397 -1184 1 -240 23
-389 93 -606 229 -713 838 -1229 1586 -1346 128 -20 493 -27 658 -14 73 6 174
20 225 31 52 11 109 22 127 26 l32 6 0 -77 0 -76 -1540 0 -1540 0 0 3178 0
3177 26 115 c15 63 30 119 34 124 5 5 40 -55 79 -133 39 -77 76 -141 81 -141
16 0 348 168 355 179 8 14 -21 70 -248 469 -136 240 -207 356 -222 362 -19 7
-64 85 -54 94 2 2 55 30 117 61 62 31 116 63 118 70 3 8 -100 355 -229 772
-130 417 -239 771 -243 786 l-6 28 543 -6 c299 -3 634 -7 744 -9 221 -5 291 2
392 37 l68 24 1646 2 1647 1 6 -767z m-9140 419 c59 -28 493 -276 509 -291 4
-4 3 -50 -3 -101 -7 -64 -7 -97 0 -104 18 -18 30 8 39 88 9 82 13 92 31 81 10
-6 7 -111 -6 -173 -3 -15 1 -25 12 -29 22 -8 34 14 34 63 0 60 11 105 24 101
12 -4 12 -13 2 -129 -7 -73 -6 -78 12 -78 15 0 21 9 26 46 3 26 6 62 6 80 0
44 13 50 54 25 44 -27 51 -27 96 9 l38 30 258 -335 c142 -184 260 -338 262
-343 1 -5 -117 -111 -262 -235 l-265 -226 -87 112 c-48 62 -91 117 -96 124 -7
8 15 32 76 79 47 37 86 74 86 80 0 17 -38 22 -188 27 -67 2 -124 6 -126 8 -2
2 -178 229 -391 504 -214 275 -402 517 -418 537 -17 21 -27 41 -24 44 4 4 30
15 59 26 72 25 160 18 242 -20z m596 -102 c15 -15 20 -33 20 -79 0 -111 -19
-119 -61 -26 -28 62 -36 105 -22 118 13 13 43 7 63 -13z m184 -102 c22 -31 20
-55 -6 -72 -27 -18 -116 -41 -125 -33 -11 11 6 52 37 90 36 43 71 48 94 15z
m356 -362 c0 -2 -8 -10 -17 -17 -16 -13 -17 -12 -4 4 13 16 21 21 21 13z
m3431 -1312 c96 -169 175 -310 177 -314 4 -11 -278 -153 -286 -145 -4 3 -30
47 -57 98 -28 51 -57 92 -65 92 -10 0 -25 -43 -51 -153 -20 -84 -38 -154 -40
-156 -16 -12 -1250 -636 -1258 -636 -16 0 -26 47 -25 118 1 103 46 173 273
435 l194 224 91 -28 c108 -34 116 -35 116 -10 0 15 -15 24 -72 41 -40 11 -79
23 -85 25 -12 4 -7 35 6 35 3 0 42 -11 86 -25 96 -30 118 -31 113 -8 -2 12
-29 25 -87 43 -65 20 -80 28 -69 37 10 9 35 5 106 -15 67 -19 95 -23 103 -15
19 19 2 30 -85 54 l-85 23 36 44 36 44 -23 49 c-13 27 -21 51 -19 54 10 10
774 395 785 395 5 0 89 -138 185 -306z m-1102 -175 c14 -40 14 -139 1 -139
-16 0 -98 79 -105 101 -11 33 20 69 59 69 29 0 36 -5 45 -31z m-71 -154 c17
-8 32 -18 32 -24 0 -26 -169 -53 -195 -31 -21 17 -19 27 11 57 22 22 30 24 72
18 26 -4 62 -13 80 -20z m4302 -1095 l0 -180 -465 0 -465 0 0 180 0 180 465 0
465 0 0 -180z m0 -500 l0 -180 -465 0 -465 0 0 180 0 180 465 0 465 0 0 -180z
m-1108 -2032 l3 -973 973 -3 972 -2 0 -48 c0 -70 -18 -214 -40 -322 -31 -151
-85 -303 -165 -465 -284 -570 -825 -960 -1456 -1050 -136 -19 -389 -19 -530 1
-953 132 -1669 961 -1658 1919 2 228 29 387 99 599 145 436 455 816 860 1054
256 151 604 253 892 261 l48 1 2 -972z m888 661 c335 -76 608 -342 703 -684
17 -63 37 -212 28 -220 -2 -3 -126 -5 -274 -5 l-269 0 -6 22 c-3 13 -23 57
-43 98 -57 113 -163 212 -285 266 l-54 24 0 258 c0 142 3 261 6 265 9 9 97 -2
194 -24z m-7741 -1209 c81 -14 130 -39 175 -91 l36 -42 42 45 c48 51 96 75
178 89 62 10 165 -3 214 -27 52 -27 105 -85 128 -144 22 -53 23 -69 26 -427
l3 -373 -220 0 -221 0 0 270 c0 257 -1 271 -20 290 -20 20 -65 26 -86 12 -30
-20 -34 -55 -34 -311 l0 -261 -205 0 -205 0 0 272 c0 302 -1 308 -66 308 -64
0 -64 -2 -64 -306 l0 -274 -220 0 -220 0 0 480 0 480 193 -2 192 -3 9 -57 c10
-70 29 -75 67 -19 37 53 114 88 224 100 6 0 39 -4 74 -9z"/>
<path d="M10705 15548 c-27 -15 -35 -28 -35 -59 0 -34 29 -59 67 -59 61 0 85
71 37 109 -30 24 -41 25 -69 9z m51 -67 c-9 -14 -33 -14 -41 -1 -4 6 -1 18 6
26 11 13 14 13 27 0 8 -8 11 -19 8 -25z"/>
<path d="M10687 15182 c-51 -57 21 -140 82 -95 32 24 39 68 15 94 -22 24 -76
25 -97 1z m68 -32 c4 -6 1 -18 -6 -26 -11 -13 -14 -13 -27 0 -8 8 -11 19 -8
25 9 14 33 14 41 1z"/>
<path d="M9698 15340 c-87 -20 -165 -44 -174 -51 -10 -8 -23 -29 -31 -48 -13
-31 -11 -46 22 -195 21 -88 44 -171 52 -184 7 -12 29 -30 48 -39 32 -15 40
-14 197 21 90 21 173 44 186 52 12 8 30 30 39 49 15 32 14 40 -21 197 -21 90
-45 174 -53 186 -14 23 -70 53 -95 51 -7 -1 -84 -18 -170 -39z m203 -10 c20 0
40 -53 73 -194 34 -150 35 -178 5 -203 -13 -10 -261 -70 -304 -74 -68 -5 -74
6 -118 196 -35 150 -36 182 -5 201 21 13 312 83 326 78 8 -2 18 -4 23 -4z"/>
<path d="M9115 15205 c-125 -30 -143 -37 -168 -66 -36 -39 -35 -62 13 -264 50
-211 57 -214 293 -160 171 40 197 50 215 91 18 38 15 65 -23 229 -43 182 -59
206 -139 204 -28 -1 -114 -16 -191 -34z m242 -29 c24 -30 88 -307 79 -342 -9
-33 -35 -43 -213 -84 -188 -44 -180 -48 -224 137 -41 175 -42 209 -9 234 27
20 252 76 312 78 27 1 41 -5 55 -23z"/>
<path d="M8555 15075 c-123 -29 -143 -37 -167 -64 -19 -21 -28 -42 -28 -65 0
-38 54 -284 72 -330 12 -30 61 -66 92 -66 35 0 331 73 352 87 31 20 48 66 40
112 -3 21 -20 99 -37 172 -50 209 -64 216 -324 154z m238 -23 c21 -23 90 -317
83 -348 -4 -13 -15 -28 -25 -34 -20 -10 -303 -80 -326 -80 -38 0 -56 36 -91
180 -18 80 -34 157 -34 171 0 44 33 62 173 95 157 38 198 41 220 16z"/>
<path d="M8000 14946 c-155 -37 -174 -46 -195 -86 -21 -40 -20 -49 20 -217 40
-170 48 -189 89 -210 35 -18 63 -15 246 28 210 50 216 61 155 319 -51 219 -63
226 -315 166z m225 -26 c19 -21 84 -272 85 -326 0 -17 -8 -38 -18 -47 -22 -20
-318 -90 -348 -83 -13 4 -28 15 -34 26 -10 19 -80 303 -80 326 0 36 38 55 175
88 167 41 196 43 220 16z"/>
<path d="M9820 14766 c-145 -35 -173 -47 -189 -83 -17 -37 -13 -74 20 -221 36
-158 48 -186 89 -207 40 -21 49 -20 217 20 170 40 189 48 210 89 18 35 15 63
-28 246 -50 210 -64 217 -319 156z m233 -24 c9 -10 32 -87 52 -172 30 -129 34
-159 24 -182 -13 -32 -33 -39 -229 -83 -124 -29 -152 -26 -170 17 -13 32 -70
284 -70 312 0 39 35 58 172 92 157 38 199 41 221 16z"/>
<path d="M9260 14636 c-154 -36 -174 -45 -195 -86 -20 -39 -20 -43 20 -215 40
-170 48 -191 87 -211 39 -20 60 -18 228 22 229 54 234 63 184 289 -18 83 -41
164 -50 181 -32 63 -77 67 -274 20z m227 -28 c14 -16 31 -68 52 -160 36 -158
38 -189 13 -211 -17 -16 -290 -87 -332 -87 -39 0 -57 35 -89 171 -46 197 -45
192 -24 218 15 18 49 30 158 56 172 41 195 42 222 13z"/>
<path d="M8696 14505 c-218 -52 -226 -65 -177 -281 43 -190 48 -203 85 -225
42 -26 58 -25 236 17 233 56 235 59 175 319 -53 226 -62 231 -319 170z m229
-25 c18 -20 85 -280 85 -331 0 -14 -8 -33 -18 -42 -10 -10 -89 -34 -176 -54
-208 -49 -200 -53 -243 122 -46 187 -48 206 -26 234 15 18 49 30 158 56 168
40 196 42 220 15z"/>
<path d="M8137 14375 c-163 -38 -181 -46 -203 -94 -17 -34 -16 -39 21 -196 42
-180 53 -206 90 -223 39 -18 67 -15 234 24 226 54 230 60 176 292 -42 179 -48
193 -85 215 -38 23 -72 20 -233 -18z m220 -27 c15 -16 32 -70 57 -176 49 -209
55 -199 -144 -246 -83 -20 -162 -36 -175 -36 -23 0 -65 31 -65 48 0 4 -16 74
-35 155 -47 199 -49 195 153 242 167 40 183 41 209 13z"/>
<path d="M9525 14135 c-5 -2 -73 -18 -150 -36 -214 -49 -220 -60 -164 -307 53
-232 60 -236 301 -182 73 17 146 36 162 42 31 12 66 61 66 93 0 31 -69 317
-82 343 -20 39 -87 63 -133 47z m92 -61 c10 -14 59 -206 79 -309 11 -57 -14
-72 -176 -111 -80 -18 -157 -34 -171 -34 -45 0 -64 35 -98 182 -36 158 -38
189 -13 211 24 22 298 88 337 81 17 -2 35 -11 42 -20z"/>
<path d="M8825 13973 c-159 -37 -196 -57 -210 -110 -3 -15 9 -93 32 -191 56
-244 61 -247 305 -192 168 38 195 50 214 97 15 34 14 45 -22 202 -34 149 -41
169 -70 199 -41 41 -56 41 -249 -5z m219 -25 c20 -19 31 -52 60 -177 37 -164
37 -193 -6 -211 -34 -14 -282 -70 -312 -70 -24 0 -66 30 -66 48 0 4 -16 74
-35 155 -35 150 -35 168 -2 195 13 11 282 80 319 81 9 1 28 -9 42 -21z"/>
<path d="M8340 13860 c-41 -10 -111 -26 -155 -36 -63 -13 -86 -23 -107 -47
-37 -39 -36 -71 8 -256 38 -162 57 -195 113 -203 16 -2 102 12 192 33 148 34
166 40 191 68 17 19 28 43 28 61 0 40 -67 325 -82 350 -15 23 -67 50 -95 49
-10 0 -52 -9 -93 -19z m123 -31 c33 -15 38 -30 77 -202 l34 -147 -21 -27 c-17
-24 -39 -32 -159 -60 -165 -38 -195 -40 -219 -13 -18 20 -84 270 -85 321 0 49
20 61 176 100 174 43 166 42 197 28z"/>
<path d="M7696 13711 c-229 -55 -233 -63 -176 -307 37 -155 46 -179 74 -197
41 -26 67 -25 233 13 143 33 171 42 190 65 13 14 26 37 29 50 5 21 -41 249
-67 331 -13 42 -49 74 -90 79 -20 3 -101 -12 -193 -34z m218 -23 c21 -19 32
-50 61 -178 39 -167 38 -190 -7 -211 -13 -5 -88 -25 -168 -43 -203 -48 -189
-58 -245 177 -29 126 -31 169 -9 188 15 13 285 85 326 88 9 1 28 -9 42 -21z"/>
<path d="M9540 13555 c-180 -43 -207 -55 -226 -101 -14 -34 -13 -45 21 -198
21 -88 44 -171 52 -184 7 -12 29 -30 48 -39 34 -16 40 -15 177 16 79 18 157
37 174 42 38 12 70 45 79 81 8 31 -59 330 -82 366 -13 21 -69 53 -90 51 -4 0
-73 -16 -153 -34z m202 -36 c13 -16 34 -94 85 -315 3 -13 -4 -31 -19 -47 -19
-22 -49 -32 -180 -62 -166 -38 -185 -38 -208 5 -5 10 -25 85 -44 166 -37 158
-36 185 6 205 41 18 303 77 323 72 11 -3 27 -13 37 -24z"/>
<path d="M8960 13420 c-140 -32 -168 -42 -187 -64 -13 -15 -26 -38 -29 -51 -5
-22 57 -321 73 -350 16 -28 48 -55 74 -60 34 -8 332 59 367 81 13 9 30 31 38
50 13 32 12 46 -22 192 -20 86 -43 169 -50 184 -31 60 -70 63 -264 18z m214
-23 c18 -13 86 -269 88 -330 2 -49 -26 -63 -194 -102 -160 -37 -177 -37 -206
-3 -6 7 -27 84 -47 171 -50 211 -59 197 170 251 116 28 164 31 189 13z"/>
<path d="M8378 13285 c-221 -52 -225 -61 -163 -322 39 -160 54 -188 111 -199
38 -7 333 59 369 82 13 8 29 29 36 46 14 33 11 50 -38 263 -43 181 -64 190
-315 130z m235 -23 c20 -22 90 -319 82 -349 -3 -12 -15 -28 -27 -34 -21 -11
-298 -79 -323 -79 -38 0 -57 36 -91 179 -19 79 -34 155 -34 170 0 46 32 64
173 97 157 38 198 41 220 16z"/>
<path d="M7820 13156 c-74 -18 -145 -37 -156 -44 -12 -6 -29 -28 -39 -48 -17
-35 -16 -39 21 -202 34 -149 42 -170 70 -199 22 -23 41 -33 63 -33 37 0 317
66 348 81 12 7 30 28 39 47 16 35 16 40 -22 205 -56 251 -63 255 -324 193z
m220 -16 c22 -12 30 -36 70 -209 42 -186 48 -179 -188 -232 l-142 -33 -28 21
c-24 18 -31 39 -64 178 -34 145 -36 160 -22 186 8 16 24 31 37 34 246 62 306
72 337 55z"/>
<path d="M11125 13565 c-46 -45 -22 -105 43 -105 38 0 62 23 62 58 0 33 -8 45
-37 61 -31 16 -41 14 -68 -14z m63 -42 c5 -17 -26 -29 -40 -15 -6 6 -7 15 -3
22 9 14 37 9 43 -7z"/>
<path d="M8400 5895 c-102 -19 -158 -35 -169 -49 -5 -6 -10 -199 -12 -431 l-4
-420 350 0 350 0 -1 355 c0 263 -4 365 -13 394 -20 59 -74 112 -139 137 -74
27 -254 35 -362 14z m286 -36 c73 -13 123 -40 151 -82 46 -67 48 -178 6 -236
-11 -14 -45 -39 -76 -55 -81 -41 -75 -55 26 -58 l82 -3 0 -140 0 -140 -310 0
-310 0 -3 116 -3 117 93 49 c80 43 93 54 96 78 l4 28 -91 -7 -91 -7 0 150 0
149 36 12 c105 35 285 48 390 29z"/>
<path d="M7599 5350 c-248 -28 -388 -147 -435 -371 -22 -104 -15 -517 10 -604
50 -178 151 -272 331 -310 143 -30 456 -14 558 28 l37 16 0 568 c0 312 -3 578
-6 590 -7 25 -76 55 -154 68 -25 4 -52 9 -60 10 -52 9 -217 12 -281 5z m341
-57 c127 -25 120 -10 120 -248 l0 -205 -175 0 -175 0 0 -54 0 -55 46 -7 c25
-3 104 -3 175 1 l129 7 0 -181 0 -181 -24 -9 c-46 -18 -143 -32 -266 -38 -395
-19 -561 111 -577 452 -10 198 29 328 124 416 58 55 87 71 166 94 125 36 300
39 457 8z"/>
<path d="M11435 8524 c-107 -26 -192 -92 -236 -182 -21 -44 -23 -60 -23 -237
0 -166 3 -200 23 -271 12 -45 31 -95 41 -112 l19 -31 147 49 c81 28 149 48
152 46 2 -3 -3 -73 -12 -157 -11 -103 -13 -156 -6 -164 7 -9 7 -44 -1 -110 -8
-79 -8 -100 3 -106 7 -5 93 -9 191 -9 175 0 178 0 186 23 4 12 22 168 40 347
36 372 38 380 57 380 12 0 14 -57 14 -369 0 -327 2 -370 16 -375 20 -8 338 -8
358 0 14 5 16 48 16 375 l0 369 100 0 100 0 -2 273 -3 272 -560 2 c-458 1
-571 -1 -620 -13z m1145 -154 l0 -129 -97 -3 -98 -3 -3 -367 -2 -368 -155 0
-155 0 -2 368 -3 367 -50 0 c-61 0 -52 36 -96 -402 l-33 -333 -157 0 -157 0 5
38 c18 153 70 688 66 695 -7 12 -62 8 -93 -8 -41 -21 -54 -67 -36 -133 l13
-53 -26 -11 c-53 -20 -225 -78 -226 -75 -12 15 -46 129 -56 189 -10 61 -10 87
0 132 24 106 119 191 241 215 25 5 287 9 583 10 l537 1 0 -130z m-1001 -417
c0 -16 -4 -46 -8 -68 l-8 -40 -7 30 c-4 17 -9 36 -12 43 -5 17 13 62 26 62 5
0 10 -12 9 -27z"/>
<path d="M14775 17499 c-100 -130 -116 -154 -102 -163 20 -16 376 -51 388 -39
11 11 -140 344 -158 350 -6 2 -64 -65 -128 -148z m234 -159 c1 -3 -52 0 -116
6 -65 7 -128 13 -141 13 -13 1 -22 5 -20 10 2 5 39 56 83 113 l79 103 57 -120
c32 -66 58 -122 58 -125z"/>
<path d="M13697 17603 c-4 -3 -7 -408 -7 -900 l0 -893 183 2 182 3 3 884 c1
645 -1 887 -9 897 -9 11 -50 14 -179 14 -91 0 -170 -3 -173 -7z m321 -895 l2
-858 -145 0 -145 0 0 860 0 861 143 -3 142 -3 3 -857z"/>
<path d="M18483 17520 c-77 -34 -106 -127 -63 -197 48 -79 171 -90 236 -22 22
23 29 40 32 87 4 55 2 61 -28 95 -29 33 -80 57 -120 57 -8 0 -34 -9 -57 -20z
m101 -34 c106 -44 78 -186 -37 -186 -112 0 -146 133 -47 182 42 22 42 22 84 4z"/>
<path d="M13210 16545 l0 -735 183 2 182 3 0 730 0 730 -182 3 -183 2 0 -735z
m320 -5 l0 -690 -140 0 -140 0 0 690 0 690 140 0 140 0 0 -690z"/>
<path d="M10595 16905 c-39 -40 -45 -76 -20 -124 13 -26 67 -61 95 -61 29 0
79 34 95 64 38 70 -14 156 -95 156 -32 0 -46 -7 -75 -35z"/>
<path d="M10239 16871 c-40 -40 -39 -83 2 -122 59 -55 143 -26 156 53 5 32 1
41 -25 68 -42 41 -92 42 -133 1z"/>
<path d="M12675 16828 c-3 -7 -4 -238 -3 -513 l3 -500 185 0 185 0 3 490 c1
270 0 500 -3 513 -5 22 -7 22 -186 22 -134 0 -181 -3 -184 -12z m333 -505 l2
-473 -150 0 -150 0 0 468 c0 258 3 472 7 476 4 3 70 5 147 4 l141 -3 3 -472z"/>
<path d="M14270 16730 c-28 -28 -11 -63 28 -58 21 2 28 9 30 30 5 39 -30 56
-58 28z"/>
<path d="M16504 16478 c-206 -270 -198 -258 -187 -269 9 -9 425 -48 516 -49
29 0 37 4 37 18 -1 25 -203 475 -216 479 -6 2 -74 -78 -150 -179z m301 -266
c-5 -5 -307 14 -382 25 l-42 5 131 173 132 173 83 -186 c45 -102 81 -188 78
-190z"/>
<path d="M17914 16166 c-10 -27 1 -51 26 -54 31 -5 53 23 39 49 -12 22 -57 25
-65 5z"/>
<path d="M15177 15808 c-40 -31 -36 -115 8 -132 57 -21 125 16 125 69 0 57
-86 98 -133 63z m82 -47 c14 -26 -8 -54 -39 -49 -25 3 -36 27 -26 54 8 20 53
17 65 -5z"/>
<path d="M16883 15098 c-11 -14 -103 -396 -103 -428 0 -11 5 -20 11 -20 21 0
434 123 447 133 6 5 12 13 12 17 0 7 -345 310 -353 310 -3 0 -9 -6 -14 -12z
m181 -187 c65 -58 115 -106 110 -108 -131 -42 -344 -98 -344 -91 0 11 68 296
75 317 6 16 1 20 159 -118z"/>
<path d="M1288 14939 c-38 -21 -11 -74 34 -67 30 4 38 46 12 65 -21 15 -24 15
-46 2z"/>
<path d="M3804 14917 c-104 -95 0 -257 132 -207 26 10 32 6 129 -97 90 -95
101 -111 94 -131 -23 -61 4 -127 66 -156 50 -24 99 -14 143 30 32 32 34 37 30
93 l-3 59 115 106 c78 73 119 105 130 100 38 -15 90 -16 120 0 18 8 38 12 45
8 6 -4 73 -54 148 -112 l136 -105 -5 -50 c-6 -62 16 -103 71 -129 50 -24 99
-14 142 29 29 29 33 40 33 83 0 61 -32 106 -87 121 -37 10 -89 5 -99 -10 -12
-20 -40 -4 -176 102 l-143 110 3 49 c2 30 -2 59 -12 79 -42 80 -179 81 -221 1
-17 -32 -20 -97 -6 -119 7 -10 -12 -34 -72 -91 -156 -147 -147 -141 -196 -124
-42 14 -84 11 -110 -10 -20 -16 -223 202 -210 226 5 9 9 38 9 64 0 41 -5 51
-36 80 -30 29 -42 34 -85 34 -42 0 -55 -5 -85 -33z m536 -425 c61 -77 -30
-173 -113 -119 -50 33 -41 118 16 142 38 16 73 8 97 -23z m930 0 c61 -77 -30
-173 -113 -119 -50 33 -41 118 16 142 38 16 73 8 97 -23z"/>
<path d="M18255 14750 c-14 -43 44 -67 68 -29 16 26 1 49 -32 49 -21 0 -32 -6
-36 -20z"/>
<path d="M2364 14624 c-82 -40 -85 -167 -4 -209 62 -32 146 -11 175 45 57 110
-57 220 -171 164z m125 -60 c29 -36 26 -60 -9 -96 -26 -25 -36 -29 -63 -24
-36 7 -77 47 -77 75 0 10 9 30 21 45 16 21 29 26 64 26 35 0 48 -5 64 -26z"/>
<path d="M3287 14008 c-105 -123 -126 -153 -115 -163 12 -11 341 -65 396 -65
12 0 22 6 22 14 0 8 -32 93 -71 190 -52 127 -76 176 -88 176 -9 0 -74 -69
-144 -152z m192 -38 c28 -68 51 -129 51 -135 0 -8 -45 -4 -146 11 -80 12 -147
24 -150 26 -2 3 39 55 92 117 53 62 98 111 99 109 1 -2 26 -59 54 -128z"/>
<path d="M18530 13996 c0 -26 114 -266 127 -266 6 0 53 52 103 117 64 81 88
119 80 127 -5 5 -61 16 -123 23 -152 16 -187 16 -187 -1z m173 -43 c37 -3 67
-9 67 -13 0 -4 -23 -38 -52 -74 l-52 -68 -14 29 c-9 15 -26 52 -39 81 l-23 52
23 0 c12 0 52 -3 90 -7z"/>
<path d="M13642 13879 c-95 -16 -88 3 -97 -265 -4 -142 -3 -240 2 -245 5 -5
94 -8 204 -7 l194 3 3 205 c3 235 -3 259 -73 294 -45 22 -153 30 -233 15z
m190 -39 c48 -14 78 -52 78 -99 0 -45 -19 -74 -60 -91 -45 -19 -36 -44 18 -48
l42 -3 0 -70 0 -69 -162 2 -163 3 -3 57 -3 56 51 28 c39 21 50 33 50 52 0 23
-2 24 -45 20 l-45 -6 0 79 0 78 38 6 c20 4 42 8 47 10 22 8 122 4 157 -5z"/>
<path d="M15503 13875 c-35 -7 -67 -17 -73 -20 -6 -4 -10 -97 -10 -251 l0
-244 200 0 200 0 0 213 c0 237 -5 259 -71 293 -44 22 -169 27 -246 9z m210
-39 c53 -22 69 -47 65 -102 -3 -44 -7 -51 -43 -75 -52 -36 -52 -53 3 -57 l42
-3 0 -70 0 -69 -162 2 -163 3 -3 57 -3 56 53 29 c37 19 53 34 53 48 0 17 -6
20 -47 19 l-48 0 0 77 0 77 48 10 c70 14 168 14 205 -2z"/>
<path d="M17401 13875 c-36 -8 -68 -20 -73 -27 -4 -7 -7 -119 -5 -248 l2 -235
198 -3 197 -2 0 218 c0 207 -1 221 -21 246 -11 14 -35 34 -51 42 -43 22 -169
27 -247 9z m226 -44 c33 -16 44 -27 53 -58 16 -52 1 -86 -50 -118 -22 -14 -40
-29 -40 -34 0 -13 26 -21 66 -21 l35 0 -3 -67 -3 -68 -162 -3 -163 -2 0 63 0
64 50 23 c40 19 50 28 48 44 -3 18 -10 21 -50 20 l-48 0 0 77 0 77 48 10 c81
17 172 14 219 -7z"/>
<path d="M4837 13873 c-4 -3 -7 -237 -7 -520 l0 -513 520 0 520 0 0 44 c0 136
-49 322 -120 453 -159 296 -445 491 -780 533 -99 12 -124 12 -133 3z m193 -54
c420 -76 752 -439 796 -871 l7 -68 -482 0 -481 0 0 473 c0 261 3 477 6 480 7
7 67 1 154 -14z"/>
<path d="M6282 13728 c-17 -20 -102 -209 -102 -226 0 -13 12 -14 83 -8 144 12
186 18 190 30 4 11 -99 155 -142 199 -14 15 -20 16 -29 5z m66 -116 c30 -40
39 -58 30 -63 -16 -9 -138 -17 -138 -10 0 11 55 130 60 130 3 0 24 -25 48 -57z"/>
<path d="M14790 12990 l0 -500 134 0 c125 0 135 1 141 20 6 19 7 19 42 0 78
-41 210 -34 286 16 50 33 94 96 113 162 19 64 25 253 12 366 -21 186 -120 281
-284 274 l-74 -3 0 83 0 82 -185 0 -185 0 0 -500z m331 338 l1 -133 17 38 c26
55 32 58 104 58 110 0 186 -56 223 -163 22 -62 25 -219 6 -285 -18 -62 -71
-134 -117 -157 -85 -44 -228 -28 -274 30 -10 13 -21 24 -23 24 -3 0 -11 -18
-18 -40 l-13 -40 -99 0 -98 0 0 400 0 400 145 0 145 0 1 -132z"/>
<path d="M15122 13018 c-7 -7 -12 -41 -12 -83 0 -78 9 -95 50 -95 14 0 31 5
38 12 15 15 16 132 2 159 -12 22 -59 26 -78 7z"/>
<path d="M1473 13190 c-145 -170 -180 -220 -155 -220 4 0 122 -18 262 -39 140
-21 258 -37 263 -34 15 9 5 40 -84 259 -67 163 -96 224 -108 224 -9 0 -89 -86
-178 -190z m251 -60 c41 -102 73 -186 72 -187 -4 -4 -410 58 -415 63 -2 2 3
12 11 21 170 201 251 293 254 290 2 -1 37 -86 78 -187z"/>
<path d="M14080 13260 l0 -90 -80 0 -80 0 0 -205 0 -205 80 0 80 0 0 -80 0
-80 145 0 145 0 0 80 0 80 80 0 80 0 0 205 0 205 -80 0 -80 0 0 90 0 90 -145
0 -145 0 0 -90z m250 -35 l0 -84 83 -3 82 -3 0 -100 0 -100 -82 -3 -83 -3 0
-79 0 -80 -105 0 -105 0 0 80 0 79 -82 3 -83 3 0 100 0 100 83 3 82 3 0 84 0
85 105 0 105 0 0 -85z"/>
<path d="M13102 13310 c-40 -10 -86 -27 -102 -36 l-29 -18 -5 -200 c-3 -111
-8 -260 -11 -331 -6 -156 4 -186 76 -223 38 -20 56 -23 134 -20 67 2 100 8
130 24 l40 20 35 -24 c32 -21 43 -23 125 -20 54 2 105 10 128 20 l37 17 0 215
c0 137 -4 216 -10 216 -6 0 -10 35 -10 86 0 112 -15 159 -65 210 -60 60 -115
76 -270 80 -106 3 -143 0 -203 -16z m281 -25 c71 -7 122 -27 161 -63 46 -43
56 -80 56 -201 0 -89 3 -110 15 -115 13 -5 15 -24 13 -113 l-3 -108 -30 -15
c-19 -9 -59 -15 -106 -15 -92 0 -119 17 -119 74 l0 36 -33 -37 c-43 -48 -88
-70 -163 -76 -117 -9 -184 38 -184 129 0 97 38 131 169 155 92 16 129 17 89 2
-30 -10 -35 -29 -18 -72 8 -21 16 -26 44 -26 25 0 38 6 46 19 13 25 13 91 0
91 -5 0 -10 8 -10 18 0 51 -85 72 -195 49 -38 -9 -78 -18 -87 -22 -17 -7 -18
3 -18 118 l0 125 28 10 c85 33 199 52 262 46 14 -2 51 -6 83 -9z"/>
<path d="M16879 13316 c-61 -16 -133 -60 -159 -96 -11 -16 -31 -51 -43 -77
-20 -44 -22 -63 -22 -238 0 -173 2 -195 23 -246 27 -68 78 -123 141 -152 41
-20 63 -22 221 -22 144 0 182 3 213 17 l37 17 0 380 0 380 -27 15 c-71 36
-287 48 -384 22z m319 -42 l53 -15 -3 -132 -3 -132 -112 -3 -113 -3 0 -39 c0
-34 3 -40 26 -46 15 -4 67 -4 116 -1 l89 6 -3 -117 -3 -117 -60 -13 c-73 -15
-273 -10 -330 9 -22 8 -61 34 -86 59 -62 62 -84 140 -76 272 8 142 50 215 149
258 88 38 247 44 356 14z"/>
<path d="M15785 13307 c-3 -6 -4 -165 -3 -352 l3 -340 303 -3 302 -2 0 355 0
355 -300 0 c-232 0 -302 -3 -305 -13z m565 -127 l0 -100 -265 0 -265 0 0 100
0 100 265 0 265 0 0 -100z m0 -295 l0 -95 -265 0 -265 0 0 95 0 95 265 0 265
0 0 -95z"/>
<path d="M6826 12754 c-11 -27 -7 -43 14 -54 40 -22 80 26 48 58 -17 17 -55
15 -62 -4z"/>
<path d="M2771 12551 c-45 -83 -220 -496 -214 -502 12 -12 565 32 581 46 10 9
-23 59 -163 243 -97 128 -180 232 -185 232 -5 0 -14 -8 -19 -19z m169 -240
c72 -95 128 -177 123 -181 -9 -8 -434 -42 -441 -35 -3 2 35 94 84 204 49 110
92 197 95 193 4 -4 66 -85 139 -181z"/>
<path d="M2060 12205 c-26 -32 13 -81 48 -59 34 22 22 74 -18 74 -10 0 -23 -7
-30 -15z"/>
<path d="M1339 11717 c-124 -83 -66 -267 85 -267 156 0 215 190 84 270 -47 28
-125 27 -169 -3z m167 -51 c55 -55 43 -125 -26 -161 -117 -60 -228 86 -129
169 47 40 110 37 155 -8z"/>
<path d="M17113 11713 c-10 -4 -13 -257 -13 -1218 0 -1097 2 -1213 16 -1219
31 -12 459 -7 472 6 17 17 17 2409 0 2426 -9 9 -75 12 -237 11 -125 0 -232 -3
-238 -6z m442 -1218 l0 -1180 -205 0 -205 0 -3 1170 c-1 644 0 1176 3 1183 3
10 51 12 207 10 l203 -3 0 -1180z"/>
<path d="M16455 11258 c-3 -7 -4 -456 -3 -998 l3 -985 220 -3 c121 -1 230 0
243 3 l22 5 -2 993 -3 992 -238 3 c-185 2 -239 0 -242 -10z m445 -988 l0 -950
-205 0 -205 0 0 950 0 950 205 0 205 0 0 -950z"/>
<path d="M2560 10904 c-235 -205 -234 -204 -218 -219 22 -22 499 -158 511
-146 7 7 -8 88 -48 256 -46 192 -62 245 -74 245 -9 -1 -86 -62 -171 -136z
m204 -120 c25 -105 46 -193 46 -196 0 -5 -160 40 -359 101 l-53 16 158 138
c86 75 158 136 160 134 1 -1 23 -88 48 -193z"/>
<path d="M1689 10699 c-10 -20 -9 -25 11 -41 30 -24 63 -8 58 30 -4 37 -51 44
-69 11z"/>
<path d="M15727 10664 c-4 -4 -7 -317 -7 -695 l0 -689 23 -5 c12 -3 121 -4
242 -3 l220 3 0 695 0 695 -236 3 c-129 1 -238 -1 -242 -4z m443 -694 l0 -660
-202 2 -203 3 -3 658 -2 657 205 0 205 0 0 -660z"/>
<path d="M1290 9901 c-126 -14 -145 -18 -145 -34 0 -25 175 -248 192 -245 17
3 135 254 131 277 -4 21 -11 21 -178 2z m120 -36 c0 -19 -82 -177 -88 -169
-37 42 -114 146 -111 148 3 3 58 10 187 25 6 0 12 -1 12 -4z"/>
<path d="M2295 9345 c-51 -51 -15 -135 58 -135 44 0 87 41 87 82 0 41 -40 78
-85 78 -25 0 -44 -8 -60 -25z m95 -34 c21 -39 -19 -73 -60 -51 -22 12 -26 40
-8 58 18 18 56 14 68 -7z"/>
<path d="M16967 8903 c-4 -3 -7 -71 -7 -151 l0 -144 -22 6 c-119 35 -233 29
-325 -15 -66 -32 -153 -122 -191 -197 -57 -116 -67 -185 -67 -482 0 -248 2
-270 24 -347 42 -149 119 -251 231 -306 61 -30 71 -32 175 -32 103 0 113 2
163 30 30 16 62 40 73 53 20 27 26 21 31 -33 l3 -30 258 -3 257 -2 0 830 0
830 -298 0 c-164 0 -302 -3 -305 -7z m563 -718 l0 -685 -219 0 -219 0 -6 28
c-2 15 -7 44 -11 64 -3 21 -10 40 -14 43 -5 2 -27 -19 -49 -49 -52 -68 -112
-99 -204 -104 -183 -11 -319 92 -385 293 -25 74 -27 94 -27 250 -1 133 3 184
17 235 28 105 71 181 135 243 49 46 71 59 131 78 89 26 186 23 253 -10 24 -11
50 -21 56 -21 9 0 12 43 12 160 l0 160 265 0 265 0 0 -685z"/>
<path d="M16916 8109 c-25 -20 -26 -23 -26 -135 0 -101 2 -116 20 -134 11 -11
33 -20 50 -20 17 0 39 9 50 20 18 18 20 33 20 134 0 112 -1 115 -26 135 -15
12 -34 21 -44 21 -10 0 -29 -9 -44 -21z m59 -239 c3 -5 -3 -10 -15 -10 -12 0
-18 5 -15 10 3 6 10 10 15 10 5 0 12 -4 15 -10z"/>
<path d="M15805 8868 c-12 -56 -255 -1434 -255 -1450 0 -10 7 -18 15 -18 18 0
18 6 -1 -101 -9 -48 -14 -95 -11 -104 6 -13 40 -15 252 -15 187 0 247 3 250
13 3 6 63 341 135 742 117 663 128 731 113 742 -15 11 -15 20 -1 105 9 51 14
96 11 101 -2 4 -116 7 -253 7 l-250 0 -5 -22z m465 -35 c-1 -10 -56 -328 -123
-708 l-123 -690 -217 -3 c-119 -1 -217 0 -217 4 0 3 48 272 106 598 97 544
144 807 144 814 0 1 97 2 215 2 198 0 215 -1 215 -17z"/>
<path d="M14820 8820 c-238 -30 -416 -143 -496 -315 -55 -119 -66 -198 -66
-470 0 -209 2 -251 21 -327 60 -251 221 -406 473 -459 168 -34 499 -22 691 26
l67 17 0 733 0 732 -58 17 c-148 41 -475 65 -632 46z m500 -59 c58 -10 117
-24 133 -30 l27 -11 0 -271 0 -271 -37 6 c-21 3 -134 9 -250 12 l-213 7 0 -73
0 -72 250 4 250 4 -2 -265 -3 -266 -74 -17 c-196 -45 -537 -50 -679 -9 -217
63 -346 193 -404 408 -30 113 -30 345 0 456 64 233 222 365 487 407 92 14 393
3 515 -19z"/>
<path d="M15959 6730 c-216 -26 -414 -132 -552 -296 -69 -81 -149 -237 -174
-339 -11 -48 -17 -111 -17 -200 0 -160 17 -233 83 -370 110 -226 312 -388 556
-446 121 -29 332 -23 440 11 566 181 779 852 420 1320 -176 228 -471 353 -756
320z m277 -60 c125 -29 239 -86 334 -168 l35 -30 -34 -36 c-19 -20 -39 -36
-43 -36 -5 0 -33 20 -63 44 -118 96 -253 141 -425 139 -95 0 -129 -5 -195 -26
-112 -37 -198 -90 -286 -177 -239 -237 -264 -625 -57 -899 l40 -53 -39 -39
-39 -39 -48 62 c-59 78 -108 178 -137 283 -32 113 -32 287 0 400 77 278 276
482 549 565 134 41 259 44 408 10z m-38 -141 c26 -6 85 -29 132 -52 70 -33
100 -55 171 -126 133 -134 190 -268 190 -451 0 -112 -17 -186 -68 -290 -49
-102 -178 -232 -279 -283 -217 -109 -453 -95 -655 39 -81 53 -157 136 -204
219 -87 155 -105 342 -51 508 61 187 193 330 376 407 114 47 263 59 388 29z
m489 -157 c107 -144 155 -293 155 -477 0 -190 -49 -335 -164 -489 l-51 -68
-39 40 -39 41 47 63 c89 122 131 233 141 378 10 153 -35 307 -128 440 l-42 61
33 34 c19 19 36 35 39 35 4 0 25 -26 48 -58z m-947 -1087 c25 -13 79 -33 120
-46 96 -29 262 -32 360 -6 84 23 197 79 250 124 l41 36 40 -39 c21 -21 39 -41
39 -45 0 -15 -125 -101 -194 -134 -118 -56 -228 -78 -376 -73 -108 4 -138 9
-220 37 -93 31 -200 91 -270 150 l-35 30 39 40 38 39 62 -45 c33 -25 81 -55
106 -68z"/>
<path d="M2457 5503 c-4 -3 -7 -327 -7 -720 l0 -713 500 0 500 0 0 343 c0 212
-4 347 -10 353 -6 6 -11 151 -12 374 l-3 365 -481 3 c-264 1 -484 -1 -487 -5z
m933 -263 l0 -230 -180 0 -180 0 0 -50 0 -50 180 0 180 0 0 -35 0 -35 -181 0
-180 0 3 -52 3 -53 188 -3 187 -2 0 -195 0 -195 -465 0 -465 0 0 558 c0 307 3
562 7 565 3 4 208 7 455 7 l448 0 0 -230z"/>
<path d="M3857 5323 c-4 -3 -7 -244 -7 -535 l0 -528 450 0 450 0 0 535 0 535
-443 0 c-244 0 -447 -3 -450 -7z m861 -190 l-3 -158 -410 0 -410 0 -3 158 -3
157 416 0 416 0 -3 -157z m0 -445 l3 -158 -416 0 -415 0 0 153 c0 85 3 157 7
160 4 4 189 6 412 5 l406 -3 3 -157z"/>
</g>
</svg>
